<?xml version="1.0" encoding="utf-8"?>
<!-- Generator: Adobe Illustrator 21.1.0, SVG Export Plug-In . SVG Version: 6.00 Build 0)  -->
<svg version="1.1" id="Layer_1" xmlns="http://www.w3.org/2000/svg" xmlns:xlink="http://www.w3.org/1999/xlink" x="0px" y="0px"
	 viewBox="0 0 500 200" style="enable-background:new 0 0 500 200;" xml:space="preserve">
<style type="text/css">
	.st0{fill:#23233F;}
	.st1{fill:#FFFFFF;}
	.st2{fill:#11132E;}
	.st3{fill:#F05555;}
</style>
<g id="Layer_2">
	<rect x="-149.6" y="-163.8" class="st0" width="750" height="500"/>
	<g>
		<g>
			<g>
				<path class="st1" d="M-0.2-82.9c0.7-0.6,1-1.2,1.2-1.1c0.4,0.2,0.9,0.6,1.1,1c0.1,0.1-0.4,0.9-0.7,0.9C1-82.2,0.6-82.5-0.2-82.9
					z"/>
				<path class="st1" d="M152.2,38.1c-0.8,0.4-1.2,0.7-1.7,0.7c-0.2,0-0.8-0.8-0.7-0.9c0.3-0.4,0.7-0.8,1.1-1
					C151.2,36.9,151.5,37.4,152.2,38.1z"/>
				<path class="st1" d="M27.1,15c-0.4-1.6,0.3-1.8,2.3-1.1C28.4,14.4,27.7,14.7,27.1,15z"/>
				<path class="st1" d="M230.5-49.9c1.2-0.3,1.5,0.3,0.7,2.4C230.9-48.6,230.7-49.3,230.5-49.9z"/>
				<path class="st1" d="M-1-82.4c-0.5-1.4-0.7-2.1-0.8-2.4C-0.9-85-0.9-85-1-82.4z"/>
				<path class="st1" d="M241.5,154.9c0-0.7,0-1.3,0-2c0.2,0,0.3,0,0.5,0c0,0.7,0,1.3,0,2C241.8,154.9,241.6,154.9,241.5,154.9z"/>
				<path class="st1" d="M94.4-55c-0.5,0-1.1,0-1.6,0c0-0.2,0-0.3-0.1-0.5c0.5-0.1,1-0.3,1.5-0.4C94.3-55.5,94.4-55.3,94.4-55z"/>
				<path class="st1" d="M138.2-42c0,0.5,0,1.1,0,1.6c-0.2,0-0.3,0.1-0.5,0.1c-0.1-0.5-0.2-1.1-0.4-1.6
					C137.7-41.9,137.9-41.9,138.2-42z"/>
				<path class="st1" d="M39.5-48.1c0-0.5,0-1.1,0-1.6c0.2,0,0.3-0.1,0.5-0.1c0.1,0.5,0.2,1.1,0.4,1.6C40-48.2,39.8-48.2,39.5-48.1z
					"/>
				<path class="st1" d="M40.1-53.7c0,0.5,0,1.1,0,1.6c-0.2,0-0.3,0-0.5,0.1c-0.1-0.5-0.2-1.1-0.3-1.6
					C39.6-53.6,39.9-53.6,40.1-53.7z"/>
				<path class="st1" d="M203-81c0,0.5,0,1.1,0,1.6c-0.2,0-0.3,0.1-0.5,0.1c-0.1-0.5-0.2-1.1-0.4-1.6C202.4-80.9,202.7-81,203-81z"
					/>
				<path class="st1" d="M220-53.8c0,0.7,0,1.3,0,2c-0.2,0-0.3,0-0.5,0c0-0.7,0-1.3,0-2C219.7-53.8,219.9-53.8,220-53.8z"/>
				<path class="st1" d="M-7.7-8.1c-0.2-0.1-0.4-0.2-0.6-0.3C-8.2-8.6-8-8.8-8-8.8c0.2,0.1,0.4,0.2,0.6,0.3
					C-7.4-8.4-7.5-8.3-7.7-8.1z"/>
				<path class="st1" d="M-3.4-79.6c0.1-0.2,0.2-0.4,0.3-0.6c0.1,0.1,0.3,0.2,0.3,0.3c0,0.2-0.2,0.4-0.3,0.7
					C-3.1-79.3-3.2-79.4-3.4-79.6z"/>
				<path class="st1" d="M-1-43c0.1,0.1,0.2,0.2,0.3,0.3c-0.2,0.1-0.4,0.3-0.6,0.3c-0.1,0-0.2-0.2-0.3-0.3C-1.4-42.7-1.2-42.9-1-43z
					"/>
				<path class="st1" d="M-0.7-27c0.2-0.1,0.4-0.3,0.6-0.3c0.1,0,0.2,0.2,0.3,0.3c-0.2,0.1-0.4,0.3-0.6,0.3
					C-0.4-26.7-0.5-26.9-0.7-27z"/>
				<path class="st1" d="M-0.5-38.6c0.1-0.2,0.2-0.4,0.3-0.6c0.1,0.1,0.3,0.2,0.3,0.3c0,0.2-0.2,0.4-0.3,0.7
					C-0.3-38.3-0.4-38.4-0.5-38.6z"/>
				<path class="st1" d="M12.7-29.9c0.2-0.1,0.4-0.3,0.6-0.3c0.1,0,0.2,0.2,0.3,0.3c-0.2,0.1-0.4,0.3-0.6,0.3
					C12.9-29.6,12.8-29.8,12.7-29.9z"/>
				<path class="st1" d="M19.2-82.8c-0.1,0.2-0.2,0.4-0.3,0.6c-0.1-0.1-0.3-0.2-0.3-0.3c0-0.2,0.2-0.4,0.3-0.7
					C19-83,19.1-82.9,19.2-82.8z"/>
				<path class="st1" d="M22.3,15.5c-0.2,0.3-0.4,0.5-0.7,0.8c-0.1-0.1-0.2-0.2-0.3-0.3c0.3-0.2,0.5-0.5,0.8-0.7
					C22.2,15.4,22.2,15.5,22.3,15.5z"/>
				<path class="st1" d="M22.1-82.8c-0.1,0.2-0.2,0.4-0.3,0.6c-0.1-0.1-0.3-0.2-0.3-0.3c0-0.2,0.2-0.4,0.3-0.7
					C21.8-83,21.9-82.9,22.1-82.8z"/>
				<path class="st1" d="M24,13.4c0.2-0.3,0.4-0.5,0.7-0.8c0.1,0.1,0.2,0.2,0.3,0.3c-0.3,0.2-0.5,0.5-0.8,0.7
					C24.1,13.5,24.1,13.5,24,13.4z"/>
				<path class="st1" d="M27.3-85.9c0.2,0.1,0.4,0.2,0.6,0.3c-0.1,0.1-0.2,0.3-0.3,0.3c-0.2-0.1-0.4-0.2-0.6-0.3
					C27.1-85.7,27.2-85.8,27.3-85.9z"/>
				<path class="st1" d="M33.5,106.5c-0.1,0.2-0.2,0.4-0.3,0.6c-0.1-0.1-0.3-0.2-0.3-0.3c0-0.2,0.2-0.4,0.3-0.7
					C33.3,106.3,33.4,106.4,33.5,106.5z"/>
				<path class="st1" d="M46.6-31.3c0.1,0.1,0.2,0.2,0.3,0.3c-0.2,0.1-0.4,0.3-0.6,0.3c-0.1,0-0.2-0.2-0.3-0.3
					C46.2-31,46.4-31.1,46.6-31.3z"/>
				<path class="st1" d="M47.8-36.6c-0.1,0.1-0.2,0.2-0.3,0.3c-0.1-0.2-0.2-0.4-0.3-0.7c0-0.1,0.2-0.2,0.3-0.3
					C47.5-37,47.7-36.8,47.8-36.6z"/>
				<path class="st1" d="M48.4-41.2c0.1,0.2,0.2,0.4,0.3,0.7c0,0.1-0.2,0.2-0.3,0.3c-0.1-0.2-0.2-0.4-0.3-0.7
					C48.1-40.9,48.3-41.1,48.4-41.2z"/>
				<path class="st1" d="M49-45.9c-0.2,0.3-0.4,0.5-0.7,0.8c-0.1-0.1-0.2-0.2-0.3-0.3c0.3-0.2,0.5-0.5,0.8-0.7
					C48.8-46.1,48.9-46,49-45.9z"/>
				<path class="st1" d="M48.2-53.7c0.2,0.1,0.4,0.2,0.6,0.3c-0.1,0.1-0.2,0.3-0.3,0.3c-0.2-0.1-0.4-0.2-0.6-0.3
					C48-53.5,48.1-53.6,48.2-53.7z"/>
				<path class="st1" d="M48.8-46.1c0.2-0.3,0.4-0.5,0.7-0.8c0.1,0.1,0.2,0.2,0.3,0.3c-0.3,0.2-0.5,0.5-0.8,0.7
					C48.9-46,48.8-46.1,48.8-46.1z"/>
				<path class="st1" d="M50.4,87.5c-0.2-0.1-0.4-0.2-0.6-0.3c0.1-0.1,0.2-0.3,0.3-0.3c0.2,0.1,0.4,0.2,0.6,0.3
					C50.7,87.2,50.6,87.4,50.4,87.5z"/>
				<path class="st1" d="M50-2.5c0.1-0.2,0.2-0.4,0.3-0.6c0.1,0.1,0.3,0.2,0.3,0.3c0,0.2-0.2,0.4-0.3,0.7C50.2-2.2,50.1-2.4,50-2.5z
					"/>
				<path class="st1" d="M61.9-34.2c0.1,0.1,0.2,0.2,0.3,0.3c-0.2,0.1-0.4,0.3-0.6,0.3c-0.1,0-0.2-0.2-0.3-0.3
					C61.4-34,61.7-34.1,61.9-34.2z"/>
				<path class="st1" d="M64.7,40.7c-0.2-0.1-0.4-0.2-0.6-0.3c0.1-0.1,0.2-0.3,0.3-0.3c0.2,0.1,0.4,0.2,0.6,0.3
					C64.9,40.4,64.8,40.5,64.7,40.7z"/>
				<path class="st1" d="M71.4,40.9c0.1,0.1,0.2,0.2,0.3,0.3c-0.2,0.1-0.4,0.3-0.6,0.3c-0.1,0-0.2-0.2-0.3-0.3
					C71,41.2,71.2,41,71.4,40.9z"/>
				<path class="st1" d="M71.4-57.6c0.1,0.1,0.2,0.2,0.3,0.3c-0.2,0.1-0.4,0.3-0.6,0.3c-0.1,0-0.2-0.2-0.3-0.3
					C71-57.4,71.2-57.5,71.4-57.6z"/>
				<path class="st1" d="M72.5-4.4c-0.1,0.1-0.2,0.2-0.3,0.3c-0.1-0.2-0.2-0.4-0.3-0.7c0-0.1,0.2-0.2,0.3-0.3
					C72.3-4.8,72.4-4.6,72.5-4.4z"/>
				<path class="st1" d="M75.2-8.1c-0.2-0.1-0.4-0.2-0.6-0.3c0.1-0.1,0.2-0.3,0.3-0.3c0.2,0.1,0.4,0.2,0.6,0.3
					C75.4-8.4,75.3-8.3,75.2-8.1z"/>
				<path class="st1" d="M83.3-26.2c0.1-0.1,0.2-0.2,0.3-0.3c0.1,0.2,0.2,0.4,0.3,0.7c0,0.1-0.2,0.2-0.3,0.3
					C83.5-25.8,83.4-26,83.3-26.2z"/>
				<path class="st1" d="M91.4-56.6c0.1,0.1,0.2,0.2,0.3,0.3c-0.2,0.1-0.4,0.3-0.6,0.3c-0.1,0-0.2-0.2-0.3-0.3
					C91-56.4,91.2-56.5,91.4-56.6z"/>
				<path class="st1" d="M90.9-74c0.1-0.1,0.2-0.2,0.3-0.3c0.1,0.2,0.2,0.4,0.3,0.7c0,0.1-0.2,0.2-0.3,0.3
					C91.1-73.6,91-73.8,90.9-74z"/>
				<path class="st1" d="M96.5,38.4c0.2-0.1,0.4-0.3,0.6-0.3c0.1,0,0.2,0.2,0.3,0.3c-0.2,0.1-0.4,0.3-0.6,0.3
					C96.7,38.7,96.6,38.5,96.5,38.4z"/>
				<path class="st1" d="M96.5-78.7c0.2-0.1,0.4-0.3,0.6-0.3c0.1,0,0.2,0.2,0.3,0.3c-0.2,0.1-0.4,0.3-0.6,0.3
					C96.7-78.4,96.6-78.6,96.5-78.7z"/>
				<path class="st1" d="M103.8-64.7c-0.2-0.1-0.4-0.2-0.6-0.3c0.1-0.1,0.2-0.3,0.3-0.3c0.2,0.1,0.4,0.2,0.6,0.3
					C104-65,103.9-64.8,103.8-64.7z"/>
				<path class="st1" d="M107.6-0.3c-0.2-0.1-0.4-0.2-0.6-0.3c0.1-0.1,0.2-0.3,0.3-0.3c0.2,0.1,0.4,0.2,0.6,0.3
					C107.8-0.6,107.7-0.5,107.6-0.3z"/>
				<path class="st1" d="M160.3-23.1c0.2-0.1,0.4-0.3,0.6-0.3c0.1,0,0.2,0.2,0.3,0.3c-0.2,0.1-0.4,0.3-0.6,0.3
					C160.5-22.8,160.4-23,160.3-23.1z"/>
				<path class="st1" d="M195.2,8.7c0.1,0.1,0.2,0.2,0.3,0.3c-0.2,0.1-0.4,0.3-0.6,0.3c-0.1,0-0.2-0.2-0.3-0.3
					C194.8,9,195,8.9,195.2,8.7z"/>
				<path class="st1" d="M196.6-19.1c0.1-0.2,0.2-0.4,0.3-0.6c0.1,0.1,0.3,0.2,0.3,0.3c0,0.2-0.2,0.4-0.3,0.7
					C196.8-18.8,196.7-18.9,196.6-19.1z"/>
				<path class="st1" d="M167.8,100.9c-0.1,0.1-0.2,0.2-0.3,0.3c-0.1-0.2-0.2-0.4-0.3-0.7c0-0.1,0.2-0.2,0.3-0.3
					C167.5,100.5,167.6,100.7,167.8,100.9z"/>
				<path class="st1" d="M214.4-89.6c-0.1,0.2-0.2,0.4-0.3,0.6c-0.1-0.1-0.3-0.2-0.3-0.3c0-0.2,0.2-0.4,0.3-0.7
					C214.2-89.8,214.3-89.7,214.4-89.6z"/>
				<path class="st1" d="M151.4-53c-0.2-0.1-0.4-0.2-0.6-0.3c0.1-0.1,0.2-0.3,0.3-0.3c0.2,0.1,0.4,0.2,0.6,0.3
					C151.6-53.2,151.5-53.1,151.4-53z"/>
				<path class="st1" d="M240.9,37c0.1,0.1,0.2,0.2,0.3,0.3c-0.2,0.1-0.4,0.3-0.6,0.3c-0.1,0-0.2-0.2-0.3-0.3
					C240.5,37.3,240.7,37.1,240.9,37z"/>
				<path class="st1" d="M250.1,179.2c-0.1-0.1-0.2-0.2-0.3-0.3c0.2-0.1,0.4-0.3,0.6-0.3c0.1,0,0.2,0.2,0.3,0.3
					C250.5,179,250.3,179.1,250.1,179.2z"/>
				<path class="st1" d="M251.3,36.1c0.1,0.1,0.2,0.2,0.3,0.3c-0.2,0.1-0.4,0.3-0.6,0.3c-0.1,0-0.2-0.2-0.3-0.3
					C250.9,36.3,251.1,36.2,251.3,36.1z"/>
				<path class="st1" d="M144.4-45.9c0.2,0.1,0.4,0.2,0.6,0.3c-0.1,0.1-0.2,0.3-0.3,0.3c-0.2-0.1-0.4-0.2-0.6-0.3
					C144.2-45.7,144.3-45.8,144.4-45.9z"/>
				<path class="st1" d="M164.4-33.2c0.2,0.1,0.4,0.2,0.6,0.3c-0.1,0.1-0.2,0.3-0.3,0.3c-0.2-0.1-0.4-0.2-0.6-0.3
					C164.2-33,164.3-33.1,164.4-33.2z"/>
				<path class="st1" d="M144.4-31.3c0.2,0.1,0.4,0.2,0.6,0.3c-0.1,0.1-0.2,0.3-0.3,0.3c-0.2-0.1-0.4-0.2-0.6-0.3
					C144.2-31,144.3-31.1,144.4-31.3z"/>
				<path class="st1" d="M282,31.4c-0.1,0.2-0.2,0.4-0.3,0.6c-0.1-0.1-0.3-0.2-0.3-0.3c0-0.2,0.2-0.4,0.3-0.7
					C281.8,31.1,281.9,31.3,282,31.4z"/>
				<path class="st1" d="M139.9-76.4c-0.2-0.1-0.4-0.2-0.6-0.3c0.1-0.1,0.2-0.3,0.3-0.3c0.2,0.1,0.4,0.2,0.6,0.3
					C140.2-76.7,140.1-76.6,139.9-76.4z"/>
				<path class="st1" d="M328,180c0.1-0.2,0.2-0.4,0.3-0.6c0.1,0.1,0.3,0.2,0.3,0.3c0,0.2-0.2,0.4-0.3,0.7
					C328.2,180.2,328.1,180.1,328,180z"/>
				<path class="st1" d="M336.1,12.6c0.1,0.1,0.2,0.2,0.3,0.3c-0.2,0.1-0.4,0.3-0.6,0.3c-0.1,0-0.2-0.2-0.3-0.3
					C335.7,12.9,335.9,12.8,336.1,12.6z"/>
				<path class="st1" d="M335.8-9.8c0.2,0.1,0.4,0.2,0.6,0.3c-0.1,0.1-0.2,0.3-0.3,0.3c-0.2-0.1-0.4-0.2-0.6-0.3
					C335.6-9.6,335.7-9.7,335.8-9.8z"/>
				<path class="st1" d="M337.1,1.9c0.1,0.1,0.2,0.2,0.3,0.3c-0.2,0.1-0.4,0.3-0.6,0.3c-0.1,0-0.2-0.2-0.3-0.3
					C336.6,2.1,336.9,2,337.1,1.9z"/>
				<path class="st1" d="M338,13.6c0.1,0.1,0.2,0.2,0.3,0.3c-0.2,0.1-0.4,0.3-0.6,0.3c-0.1,0-0.2-0.2-0.3-0.3
					C337.6,13.8,337.8,13.7,338,13.6z"/>
				<path class="st1" d="M136.3-11.5c-0.1,0.2-0.2,0.4-0.3,0.6c-0.1-0.1-0.3-0.2-0.3-0.3c0-0.2,0.2-0.4,0.3-0.7
					C136.1-11.8,136.2-11.7,136.3-11.5z"/>
			</g>
			<g>
				<path class="st1" d="M338.3,244.2c-0.1,1-0.1,1.9-0.2,3.2c-0.7-0.8-1.1-1.3-1.8-2.1C336.9,245,337.5,244.6,338.3,244.2z"/>
				<path class="st1" d="M196,192.5c-1.4,0.7-2.3,1.1-3.2,1.6c-0.1-0.5-0.2-0.9-0.3-1.6C193.6,192.5,194.5,192.5,196,192.5z"/>
				<path class="st1" d="M328.3,255.5c-0.7,0.6-1.1,1.2-1.2,1.1c-0.4-0.2-0.9-0.6-1.1-1c-0.1-0.1,0.4-0.9,0.7-0.9
					C327.1,254.8,327.5,255.1,328.3,255.5z"/>
				<path class="st1" d="M175.9,134.5c0.8-0.4,1.2-0.7,1.7-0.7c0.2,0,0.8,0.8,0.7,0.9c-0.3,0.4-0.7,0.8-1.1,1
					C177,135.7,176.6,135.2,175.9,134.5z"/>
				<path class="st1" d="M301,157.6c0.4,1.6-0.3,1.8-2.3,1.1C299.8,158.2,300.4,157.9,301,157.6z"/>
				<path class="st1" d="M97.6,222.5c-1.2,0.3-1.5-0.3-0.7-2.4C97.2,221.2,97.5,221.9,97.6,222.5z"/>
				<path class="st1" d="M329.1,254.9c0.5,1.4,0.7,2.1,0.8,2.4C329,257.6,329,257.6,329.1,254.9z"/>
				<path class="st1" d="M83.4,201.7c0.3,0.3,0.7,0.8,1,1.1C83.2,202.8,83.2,202.8,83.4,201.7z"/>
				<path class="st1" d="M86.7,17.6c0,0.7,0,1.3,0,2c-0.2,0-0.3,0-0.5,0c0-0.7,0-1.3,0-2C86.4,17.6,86.5,17.6,86.7,17.6z"/>
				<path class="st1" d="M233.7,227.6c0.5,0,1.1,0,1.6,0c0,0.2,0,0.3,0.1,0.5c-0.5,0.1-1,0.3-1.5,0.4
					C233.8,228.1,233.7,227.9,233.7,227.6z"/>
				<path class="st1" d="M189.9,214.6c0-0.5,0-1.1,0-1.6c0.2,0,0.3-0.1,0.5-0.1c0.1,0.5,0.2,1.1,0.4,1.6
					C190.5,214.5,190.2,214.5,189.9,214.6z"/>
				<path class="st1" d="M288.6,220.7c0,0.5,0,1.1,0,1.6c-0.2,0-0.3,0.1-0.5,0.1c-0.1-0.5-0.2-1.1-0.4-1.6
					C288.1,220.8,288.3,220.8,288.6,220.7z"/>
				<path class="st1" d="M288,226.3c0-0.5,0-1.1,0-1.6c0.2,0,0.3,0,0.5-0.1c0.1,0.5,0.2,1.1,0.3,1.6
					C288.5,226.2,288.3,226.2,288,226.3z"/>
				<path class="st1" d="M125.2,253.6c0-0.5,0-1.1,0-1.6c0.2,0,0.3-0.1,0.5-0.1c0.1,0.5,0.2,1.1,0.4,1.6
					C125.7,253.5,125.4,253.6,125.2,253.6z"/>
				<path class="st1" d="M108.1,226.4c0-0.7,0-1.3,0-2c0.2,0,0.3,0,0.5,0c0,0.7,0,1.3,0,2C108.4,226.4,108.3,226.4,108.1,226.4z"/>
				<path class="st1" d="M335.8,180.7c0.2,0.1,0.4,0.2,0.6,0.3c-0.1,0.1-0.2,0.3-0.3,0.3c-0.2-0.1-0.4-0.2-0.6-0.3
					C335.6,181,335.7,180.9,335.8,180.7z"/>
				<path class="st1" d="M331.5,252.2c-0.1,0.2-0.2,0.4-0.3,0.6c-0.1-0.1-0.3-0.2-0.3-0.3c0-0.2,0.2-0.4,0.3-0.7
					C331.3,251.9,331.4,252,331.5,252.2z"/>
				<path class="st1" d="M329.1,215.6c-0.1-0.1-0.2-0.2-0.3-0.3c0.2-0.1,0.4-0.3,0.6-0.3c0.1,0,0.2,0.2,0.3,0.3
					C329.5,215.3,329.3,215.5,329.1,215.6z"/>
				<path class="st1" d="M328.8,199.6c-0.2,0.1-0.4,0.3-0.6,0.3c-0.1,0-0.2-0.2-0.3-0.3c0.2-0.1,0.4-0.3,0.6-0.3
					C328.5,199.3,328.7,199.5,328.8,199.6z"/>
				<path class="st1" d="M328.6,211.2c-0.1,0.2-0.2,0.4-0.3,0.6c-0.1-0.1-0.3-0.2-0.3-0.3c0-0.2,0.2-0.4,0.3-0.7
					C328.4,210.9,328.5,211,328.6,211.2z"/>
				<path class="st1" d="M315.4,202.5c-0.2,0.1-0.4,0.3-0.6,0.3c-0.1,0-0.2-0.2-0.3-0.3c0.2-0.1,0.4-0.3,0.6-0.3
					C315.2,202.2,315.3,202.4,315.4,202.5z"/>
				<path class="st1" d="M308.9,255.4c0.1-0.2,0.2-0.4,0.3-0.6c0.1,0.1,0.3,0.2,0.3,0.3c0,0.2-0.2,0.4-0.3,0.7
					C309.2,255.6,309,255.5,308.9,255.4z"/>
				<path class="st1" d="M305.8,157.1c0.2-0.3,0.4-0.5,0.7-0.8c0.1,0.1,0.2,0.2,0.3,0.3c-0.3,0.2-0.5,0.5-0.8,0.7
					C306,157.2,305.9,157.1,305.8,157.1z"/>
				<path class="st1" d="M306.1,255.4c0.1-0.2,0.2-0.4,0.3-0.6c0.1,0.1,0.3,0.2,0.3,0.3c0,0.2-0.2,0.4-0.3,0.7
					C306.3,255.6,306.2,255.5,306.1,255.4z"/>
				<path class="st1" d="M304.1,159.2c-0.2,0.3-0.4,0.5-0.7,0.8c-0.1-0.1-0.2-0.2-0.3-0.3c0.3-0.2,0.5-0.5,0.8-0.7
					C304,159.1,304.1,159.1,304.1,159.2z"/>
				<path class="st1" d="M300.8,258.5c-0.2-0.1-0.4-0.2-0.6-0.3c0.1-0.1,0.2-0.3,0.3-0.3c0.2,0.1,0.4,0.2,0.6,0.3
					C301.1,258.3,301,258.4,300.8,258.5z"/>
				<path class="st1" d="M281.5,203.9c-0.1-0.1-0.2-0.2-0.3-0.3c0.2-0.1,0.4-0.3,0.6-0.3c0.1,0,0.2,0.2,0.3,0.3
					C281.9,203.6,281.7,203.7,281.5,203.9z"/>
				<path class="st1" d="M280.4,209.2c0.1-0.1,0.2-0.2,0.3-0.3c0.1,0.2,0.2,0.4,0.3,0.7c0,0.1-0.2,0.2-0.3,0.3
					C280.6,209.6,280.5,209.4,280.4,209.2z"/>
				<path class="st1" d="M279.7,213.8c-0.1-0.2-0.2-0.4-0.3-0.7c0-0.1,0.2-0.2,0.3-0.3c0.1,0.2,0.2,0.4,0.3,0.7
					C280.1,213.5,279.8,213.6,279.7,213.8z"/>
				<path class="st1" d="M279.2,218.5c0.2-0.3,0.4-0.5,0.7-0.8c0.1,0.1,0.2,0.2,0.3,0.3c-0.3,0.2-0.5,0.5-0.8,0.7
					C279.3,218.7,279.2,218.6,279.2,218.5z"/>
				<path class="st1" d="M279.9,226.3c-0.2-0.1-0.4-0.2-0.6-0.3c0.1-0.1,0.2-0.3,0.3-0.3c0.2,0.1,0.4,0.2,0.6,0.3
					C280.1,226.1,280,226.2,279.9,226.3z"/>
				<path class="st1" d="M279.4,218.7c-0.2,0.3-0.4,0.5-0.7,0.8c-0.1-0.1-0.2-0.2-0.3-0.3c0.3-0.2,0.5-0.5,0.8-0.7
					C279.2,218.6,279.3,218.7,279.4,218.7z"/>
				<path class="st1" d="M277.7,85.1c0.2,0.1,0.4,0.2,0.6,0.3c-0.1,0.1-0.2,0.3-0.3,0.3c-0.2-0.1-0.4-0.2-0.6-0.3
					C277.5,85.3,277.6,85.2,277.7,85.1z"/>
				<path class="st1" d="M278.2,175.1c-0.1,0.2-0.2,0.4-0.3,0.6c-0.1-0.1-0.3-0.2-0.3-0.3c0-0.2,0.2-0.4,0.3-0.7
					C277.9,174.8,278,174.9,278.2,175.1z"/>
				<path class="st1" d="M266.3,206.8c-0.1-0.1-0.2-0.2-0.3-0.3c0.2-0.1,0.4-0.3,0.6-0.3c0.1,0,0.2,0.2,0.3,0.3
					C266.7,206.6,266.5,206.7,266.3,206.8z"/>
				<path class="st1" d="M263.4,131.9c0.2,0.1,0.4,0.2,0.6,0.3c-0.1,0.1-0.2,0.3-0.3,0.3c-0.2-0.1-0.4-0.2-0.6-0.3
					C263.2,132.2,263.3,132.1,263.4,131.9z"/>
				<path class="st1" d="M256.7,131.7c-0.1-0.1-0.2-0.2-0.3-0.3c0.2-0.1,0.4-0.3,0.6-0.3c0.1,0,0.2,0.2,0.3,0.3
					C257.2,131.4,256.9,131.5,256.7,131.7z"/>
				<path class="st1" d="M256.7,230.2c-0.1-0.1-0.2-0.2-0.3-0.3c0.2-0.1,0.4-0.3,0.6-0.3c0.1,0,0.2,0.2,0.3,0.3
					C257.2,230,256.9,230.1,256.7,230.2z"/>
				<path class="st1" d="M255.6,177c0.1-0.1,0.2-0.2,0.3-0.3c0.1,0.2,0.2,0.4,0.3,0.7c0,0.1-0.2,0.2-0.3,0.3
					C255.8,177.4,255.7,177.2,255.6,177z"/>
				<path class="st1" d="M252.9,180.7c0.2,0.1,0.4,0.2,0.6,0.3c-0.1,0.1-0.2,0.3-0.3,0.3c-0.2-0.1-0.4-0.2-0.6-0.3
					C252.7,181,252.8,180.9,252.9,180.7z"/>
				<path class="st1" d="M244.8,198.8c-0.1,0.1-0.2,0.2-0.3,0.3c-0.1-0.2-0.2-0.4-0.3-0.7c0-0.1,0.2-0.2,0.3-0.3
					C244.6,198.4,244.7,198.6,244.8,198.8z"/>
				<path class="st1" d="M236.8,229.2c-0.1-0.1-0.2-0.2-0.3-0.3c0.2-0.1,0.4-0.3,0.6-0.3c0.1,0,0.2,0.2,0.3,0.3
					C237.2,229,237,229.1,236.8,229.2z"/>
				<path class="st1" d="M237.2,246.6c-0.1,0.1-0.2,0.2-0.3,0.3c-0.1-0.2-0.2-0.4-0.3-0.7c0-0.1,0.2-0.2,0.3-0.3
					C237,246.2,237.1,246.4,237.2,246.6z"/>
				<path class="st1" d="M231.7,134.2c-0.2,0.1-0.4,0.3-0.6,0.3c-0.1,0-0.2-0.2-0.3-0.3c0.2-0.1,0.4-0.3,0.6-0.3
					C231.4,133.9,231.5,134.1,231.7,134.2z"/>
				<path class="st1" d="M231.7,251.3c-0.2,0.1-0.4,0.3-0.6,0.3c-0.1,0-0.2-0.2-0.3-0.3c0.2-0.1,0.4-0.3,0.6-0.3
					C231.4,251,231.5,251.2,231.7,251.3z"/>
				<path class="st1" d="M224.4,237.3c0.2,0.1,0.4,0.2,0.6,0.3c-0.1,0.1-0.2,0.3-0.3,0.3c-0.2-0.1-0.4-0.2-0.6-0.3
					C224.1,237.5,224.2,237.4,224.4,237.3z"/>
				<path class="st1" d="M220.6,172.9c0.2,0.1,0.4,0.2,0.6,0.3c-0.1,0.1-0.2,0.3-0.3,0.3c-0.2-0.1-0.4-0.2-0.6-0.3
					C220.3,173.2,220.4,173,220.6,172.9z"/>
				<path class="st1" d="M167.9,195.7c-0.2,0.1-0.4,0.3-0.6,0.3c-0.1,0-0.2-0.2-0.3-0.3c0.2-0.1,0.4-0.3,0.6-0.3
					C167.6,195.4,167.7,195.6,167.9,195.7z"/>
				<path class="st1" d="M133,163.9c-0.1-0.1-0.2-0.2-0.3-0.3c0.2-0.1,0.4-0.3,0.6-0.3c0.1,0,0.2,0.2,0.3,0.3
					C133.4,163.6,133.2,163.7,133,163.9z"/>
				<path class="st1" d="M131.5,191.7c-0.1,0.2-0.2,0.4-0.3,0.6c-0.1-0.1-0.3-0.2-0.3-0.3c0-0.2,0.2-0.4,0.3-0.7
					C131.3,191.4,131.4,191.5,131.5,191.7z"/>
				<path class="st1" d="M160.4,71.7c0.1-0.1,0.2-0.2,0.3-0.3c0.1,0.2,0.2,0.4,0.3,0.7c0,0.1-0.2,0.2-0.3,0.3
					C160.6,72.1,160.5,71.9,160.4,71.7z"/>
				<path class="st1" d="M113.7,262.2c0.1-0.2,0.2-0.4,0.3-0.6c0.1,0.1,0.3,0.2,0.3,0.3c0,0.2-0.2,0.4-0.3,0.7
					C113.9,262.4,113.8,262.3,113.7,262.2z"/>
				<path class="st1" d="M176.8,225.6c0.2,0.1,0.4,0.2,0.6,0.3c-0.1,0.1-0.2,0.3-0.3,0.3c-0.2-0.1-0.4-0.2-0.6-0.3
					C176.5,225.8,176.6,225.7,176.8,225.6z"/>
				<path class="st1" d="M87.3,135.6c-0.1-0.1-0.2-0.2-0.3-0.3c0.2-0.1,0.4-0.3,0.6-0.3c0.1,0,0.2,0.2,0.3,0.3
					C87.7,135.3,87.4,135.4,87.3,135.6z"/>
				<path class="st1" d="M78-6.6c0.1,0.1,0.2,0.2,0.3,0.3C78.1-6.1,77.9-6,77.7-6c-0.1,0-0.2-0.2-0.3-0.3C77.6-6.4,77.8-6.5,78-6.6z
					"/>
				<path class="st1" d="M76.8,136.5c-0.1-0.1-0.2-0.2-0.3-0.3c0.2-0.1,0.4-0.3,0.6-0.3c0.1,0,0.2,0.2,0.3,0.3
					C77.2,136.3,77,136.4,76.8,136.5z"/>
				<path class="st1" d="M183.7,218.5c-0.2-0.1-0.4-0.2-0.6-0.3c0.1-0.1,0.2-0.3,0.3-0.3c0.2,0.1,0.4,0.2,0.6,0.3
					C183.9,218.3,183.8,218.4,183.7,218.5z"/>
				<path class="st1" d="M163.7,205.8c-0.2-0.1-0.4-0.2-0.6-0.3c0.1-0.1,0.2-0.3,0.3-0.3c0.2,0.1,0.4,0.2,0.6,0.3
					C163.9,205.6,163.8,205.7,163.7,205.8z"/>
				<path class="st1" d="M183.7,203.9c-0.2-0.1-0.4-0.2-0.6-0.3c0.1-0.1,0.2-0.3,0.3-0.3c0.2,0.1,0.4,0.2,0.6,0.3
					C183.9,203.6,183.8,203.7,183.7,203.9z"/>
				<path class="st1" d="M55.5,179.1c-0.2,0.1-0.4,0.3-0.6,0.3c-0.1,0-0.2-0.2-0.3-0.3c0.2-0.1,0.4-0.3,0.6-0.3
					C55.3,178.8,55.4,179,55.5,179.1z"/>
				<path class="st1" d="M46.1,141.2c0.1-0.2,0.2-0.4,0.3-0.6c0.1,0.1,0.3,0.2,0.3,0.3c0,0.2-0.2,0.4-0.3,0.7
					C46.3,141.4,46.2,141.3,46.1,141.2z"/>
				<path class="st1" d="M188.2,249c0.2,0.1,0.4,0.2,0.6,0.3c-0.1,0.1-0.2,0.3-0.3,0.3c-0.2-0.1-0.4-0.2-0.6-0.3
					C188,249.3,188.1,249.1,188.2,249z"/>
				<path class="st1" d="M0.1-7.4C0-7.2-0.1-7-0.2-6.7C-0.3-6.9-0.5-7-0.5-7.1c0-0.2,0.2-0.4,0.3-0.7C-0.1-7.6,0-7.5,0.1-7.4z"/>
				<path class="st1" d="M-8,160c-0.1-0.1-0.2-0.2-0.3-0.3c0.2-0.1,0.4-0.3,0.6-0.3c0.1,0,0.2,0.2,0.3,0.3
					C-7.6,159.7-7.8,159.8-8,160z"/>
				<path class="st1" d="M-7.7,182.4c-0.2-0.1-0.4-0.2-0.6-0.3c0.1-0.1,0.2-0.3,0.3-0.3c0.2,0.1,0.4,0.2,0.6,0.3
					C-7.5,182.2-7.6,182.3-7.7,182.4z"/>
				<path class="st1" d="M-8.9,170.7c-0.1-0.1-0.2-0.2-0.3-0.3c0.2-0.1,0.4-0.3,0.6-0.3c0.1,0,0.2,0.2,0.3,0.3
					C-8.5,170.5-8.7,170.6-8.9,170.7z"/>
				<path class="st1" d="M-9.9,159c-0.1-0.1-0.2-0.2-0.3-0.3c0.2-0.1,0.4-0.3,0.6-0.3c0.1,0,0.2,0.2,0.3,0.3
					C-9.5,158.7-9.7,158.9-9.9,159z"/>
				<path class="st1" d="M191.8,184.1c0.1-0.2,0.2-0.4,0.3-0.6c0.1,0.1,0.3,0.2,0.3,0.3c0,0.2-0.2,0.4-0.3,0.7
					C192,184.4,191.9,184.3,191.8,184.1z"/>
			</g>
		</g>
		<g>
			<g>
				<path class="st1" d="M321.9-88c1,0.1,1.9,0.1,3.2,0.2c-0.8,0.7-1.3,1.1-2.1,1.8C322.7-86.5,322.4-87.1,321.9-88z"/>
				<path class="st1" d="M333.3-78c0.6,0.7,1.2,1.1,1.1,1.2c-0.2,0.4-0.6,0.9-1,1.1c-0.1,0.1-0.9-0.4-0.9-0.7
					C332.6-76.7,332.9-77.2,333.3-78z"/>
				<path class="st1" d="M212.3,74.4c-0.4-0.8-0.7-1.2-0.7-1.7c0-0.2,0.8-0.8,0.9-0.7c0.4,0.3,0.8,0.7,1,1.1
					C213.5,73.4,212.9,73.8,212.3,74.4z"/>
				<path class="st1" d="M235.3-50.7c1.6-0.4,1.8,0.3,1.1,2.3C235.9-49.4,235.6-50.1,235.3-50.7z"/>
				<path class="st1" d="M300.3,152.7c0.3,1.2-0.3,1.5-2.4,0.7C299,153.1,299.7,152.9,300.3,152.7z"/>
				<path class="st1" d="M332.7-78.8c1.4-0.5,2.1-0.7,2.4-0.8C335.4-78.6,335.4-78.6,332.7-78.8z"/>
				<path class="st1" d="M279.5,166.9c0.3-0.3,0.8-0.7,1.1-1C280.6,167.2,280.6,167.2,279.5,166.9z"/>
				<path class="st1" d="M95.4,163.7c0.7,0,1.3,0,2,0c0,0.2,0,0.3,0,0.5c-0.7,0-1.3,0-2,0C95.4,164,95.4,163.8,95.4,163.7z"/>
				<path class="st1" d="M305.3,16.7c0-0.5,0-1.1,0-1.6c0.2,0,0.3,0,0.5-0.1c0.1,0.5,0.3,1,0.4,1.5
					C305.9,16.6,305.6,16.6,305.3,16.7z"/>
				<path class="st1" d="M298.5-38.3c0.5,0,1.1,0,1.6,0c0,0.2,0.1,0.3,0.1,0.5c-0.5,0.1-1.1,0.2-1.6,0.4
					C298.6-37.7,298.5-38,298.5-38.3z"/>
				<path class="st1" d="M304-37.6c-0.5,0-1.1,0-1.6,0c0-0.2,0-0.3-0.1-0.5c0.5-0.1,1.1-0.2,1.6-0.3C304-38.2,304-37.9,304-37.6z"/>
				<path class="st1" d="M331.4,125.2c-0.5,0-1.1,0-1.6,0c0-0.2-0.1-0.3-0.1-0.5c0.5-0.1,1.1-0.2,1.6-0.4
					C331.3,124.6,331.3,124.9,331.4,125.2z"/>
				<path class="st1" d="M304.2,142.3c-0.7,0-1.3,0-2,0c0-0.2,0-0.3,0-0.5c0.7,0,1.3,0,2,0C304.2,141.9,304.2,142.1,304.2,142.3z"/>
				<path class="st1" d="M258.5-85.4c0.1-0.2,0.2-0.4,0.3-0.6c0.1,0.1,0.3,0.2,0.3,0.3c-0.1,0.2-0.2,0.4-0.3,0.6
					C258.7-85.2,258.6-85.3,258.5-85.4z"/>
				<path class="st1" d="M329.9-81.1c0.2,0.1,0.4,0.2,0.6,0.3c-0.1,0.1-0.2,0.3-0.3,0.3c-0.2,0-0.4-0.2-0.7-0.3
					C329.7-80.9,329.8-81,329.9-81.1z"/>
				<path class="st1" d="M293.3-78.8c-0.1,0.1-0.2,0.2-0.3,0.3c-0.1-0.2-0.3-0.4-0.3-0.6c0-0.1,0.2-0.2,0.3-0.3
					C293.1-79.2,293.2-79,293.3-78.8z"/>
				<path class="st1" d="M277.4-78.4c0.1,0.2,0.3,0.4,0.3,0.6c0,0.1-0.2,0.2-0.3,0.3c-0.1-0.2-0.3-0.4-0.3-0.6
					C277-78.2,277.3-78.3,277.4-78.4z"/>
				<path class="st1" d="M288.9-78.3c0.2,0.1,0.4,0.2,0.6,0.3c-0.1,0.1-0.2,0.3-0.3,0.3c-0.2,0-0.4-0.2-0.7-0.3
					C288.7-78.1,288.8-78.2,288.9-78.3z"/>
				<path class="st1" d="M280.3-65.1c0.1,0.2,0.3,0.4,0.3,0.6c0,0.1-0.2,0.2-0.3,0.3c-0.1-0.2-0.3-0.4-0.3-0.6
					C280-64.9,280.2-65,280.3-65.1z"/>
				<path class="st1" d="M333.1-58.6c-0.2-0.1-0.4-0.2-0.6-0.3c0.1-0.1,0.2-0.3,0.3-0.3c0.2,0,0.4,0.2,0.7,0.3
					C333.4-58.8,333.3-58.7,333.1-58.6z"/>
				<path class="st1" d="M234.8-55.5c-0.3-0.2-0.5-0.4-0.8-0.7c0.1-0.1,0.2-0.2,0.3-0.3c0.2,0.3,0.5,0.5,0.7,0.8
					C235-55.6,234.9-55.5,234.8-55.5z"/>
				<path class="st1" d="M333.1-55.7c-0.2-0.1-0.4-0.2-0.6-0.3c0.1-0.1,0.2-0.3,0.3-0.3c0.2,0,0.4,0.2,0.7,0.3
					C333.4-55.9,333.3-55.8,333.1-55.7z"/>
				<path class="st1" d="M336.3-50.5c-0.1,0.2-0.2,0.4-0.3,0.6c-0.1-0.1-0.3-0.2-0.3-0.3c0.1-0.2,0.2-0.4,0.3-0.6
					C336-50.7,336.1-50.6,336.3-50.5z"/>
				<path class="st1" d="M143.8-44.3c-0.2-0.1-0.4-0.2-0.6-0.3c0.1-0.1,0.2-0.3,0.3-0.3c0.2,0,0.4,0.2,0.7,0.3
					C144.1-44.5,144-44.4,143.8-44.3z"/>
				<path class="st1" d="M281.6-31.1c-0.1,0.1-0.2,0.2-0.3,0.3c-0.1-0.2-0.3-0.4-0.3-0.6c0-0.1,0.2-0.2,0.3-0.3
					C281.4-31.6,281.5-31.3,281.6-31.1z"/>
				<path class="st1" d="M287-30c-0.1-0.1-0.2-0.2-0.3-0.3c0.2-0.1,0.4-0.2,0.7-0.3c0.1,0,0.2,0.2,0.3,0.3
					C287.4-30.2,287.2-30.1,287-30z"/>
				<path class="st1" d="M291.5-29.4c-0.2,0.1-0.4,0.2-0.7,0.3c-0.1,0-0.2-0.2-0.3-0.3c0.2-0.1,0.4-0.2,0.7-0.3
					C291.3-29.7,291.4-29.5,291.5-29.4z"/>
				<path class="st1" d="M296.3-28.8c-0.3-0.2-0.5-0.4-0.8-0.7c0.1-0.1,0.2-0.2,0.3-0.3c0.2,0.3,0.5,0.5,0.7,0.8
					C296.4-28.9,296.4-28.9,296.3-28.8z"/>
				<path class="st1" d="M304.1-29.5c-0.1,0.2-0.2,0.4-0.3,0.6c-0.1-0.1-0.3-0.2-0.3-0.3c0.1-0.2,0.2-0.4,0.3-0.6
					C303.8-29.8,303.9-29.6,304.1-29.5z"/>
				<path class="st1" d="M296.5-29c0.3,0.2,0.5,0.4,0.8,0.7c-0.1,0.1-0.2,0.2-0.3,0.3c-0.2-0.3-0.5-0.5-0.7-0.8
					C296.4-28.9,296.4-28.9,296.5-29z"/>
				<path class="st1" d="M162.9-27.3c0.1-0.2,0.2-0.4,0.3-0.6c0.1,0.1,0.3,0.2,0.3,0.3c-0.1,0.2-0.2,0.4-0.3,0.6
					C163.1-27.1,163-27.2,162.9-27.3z"/>
				<path class="st1" d="M209.7-13.1c0.1-0.2,0.2-0.4,0.3-0.6c0.1,0.1,0.3,0.2,0.3,0.3c-0.1,0.2-0.2,0.4-0.3,0.6
					C209.9-12.8,209.8-12.9,209.7-13.1z"/>
				<path class="st1" d="M209.4-6.4c-0.1,0.1-0.2,0.2-0.3,0.3c-0.1-0.2-0.3-0.4-0.3-0.6c0-0.1,0.2-0.2,0.3-0.3
					C209.2-6.8,209.3-6.6,209.4-6.4z"/>
				<path class="st1" d="M308-6.4c-0.1,0.1-0.2,0.2-0.3,0.3c-0.1-0.2-0.3-0.4-0.3-0.6c0-0.1,0.2-0.2,0.3-0.3
					C307.7-6.8,307.9-6.6,308-6.4z"/>
				<path class="st1" d="M254.8-5.2c-0.1-0.1-0.2-0.2-0.3-0.3c0.2-0.1,0.4-0.2,0.7-0.3c0.1,0,0.2,0.2,0.3,0.3
					C255.2-5.5,255-5.3,254.8-5.2z"/>
				<path class="st1" d="M258.5-2.6c0.1-0.2,0.2-0.4,0.3-0.6c0.1,0.1,0.3,0.2,0.3,0.3c-0.1,0.2-0.2,0.4-0.3,0.6
					C258.7-2.3,258.6-2.5,258.5-2.6z"/>
				<path class="st1" d="M276.5,5.5c0.1,0.1,0.2,0.2,0.3,0.3c-0.2,0.1-0.4,0.2-0.7,0.3c-0.1,0-0.2-0.2-0.3-0.3
					C276.1,5.7,276.3,5.6,276.5,5.5z"/>
				<path class="st1" d="M307,13.6c-0.1,0.1-0.2,0.2-0.3,0.3c-0.1-0.2-0.3-0.4-0.3-0.6c0-0.1,0.2-0.2,0.3-0.3
					C306.8,13.2,306.9,13.4,307,13.6z"/>
				<path class="st1" d="M324.3,13.1c0.1,0.1,0.2,0.2,0.3,0.3c-0.2,0.1-0.4,0.2-0.7,0.3c-0.1,0-0.2-0.2-0.3-0.3
					C323.9,13.4,324.1,13.2,324.3,13.1z"/>
				<path class="st1" d="M212,18.7c0.1,0.2,0.3,0.4,0.3,0.6c0,0.1-0.2,0.2-0.3,0.3c-0.1-0.2-0.3-0.4-0.3-0.6
					C211.7,18.9,211.9,18.8,212,18.7z"/>
				<path class="st1" d="M329.1,18.7c0.1,0.2,0.3,0.4,0.3,0.6c0,0.1-0.2,0.2-0.3,0.3c-0.1-0.2-0.3-0.4-0.3-0.6
					C328.8,18.9,329,18.8,329.1,18.7z"/>
				<path class="st1" d="M315.1,26c0.1-0.2,0.2-0.4,0.3-0.6c0.1,0.1,0.3,0.2,0.3,0.3c-0.1,0.2-0.2,0.4-0.3,0.6
					C315.3,26.2,315.2,26.1,315.1,26z"/>
				<path class="st1" d="M250.7,29.8c0.1-0.2,0.2-0.4,0.3-0.6c0.1,0.1,0.3,0.2,0.3,0.3c-0.1,0.2-0.2,0.4-0.3,0.6
					C250.9,30,250.8,29.9,250.7,29.8z"/>
				<path class="st1" d="M273.5,82.5c0.1,0.2,0.3,0.4,0.3,0.6c0,0.1-0.2,0.2-0.3,0.3c-0.1-0.2-0.3-0.4-0.3-0.6
					C273.1,82.7,273.4,82.6,273.5,82.5z"/>
				<path class="st1" d="M241.6,117.4c-0.1,0.1-0.2,0.2-0.3,0.3c-0.1-0.2-0.3-0.4-0.3-0.6c0-0.1,0.2-0.2,0.3-0.3
					C241.4,117,241.5,117.2,241.6,117.4z"/>
				<path class="st1" d="M269.4,118.8c0.2,0.1,0.4,0.2,0.6,0.3c-0.1,0.1-0.2,0.3-0.3,0.3c-0.2,0-0.4-0.2-0.7-0.3
					C269.2,119.1,269.3,119,269.4,118.8z"/>
				<path class="st1" d="M149.4,90c-0.1-0.1-0.2-0.2-0.3-0.3c0.2-0.1,0.4-0.2,0.7-0.3c0.1,0,0.2,0.2,0.3,0.3
					C149.8,89.8,149.6,89.9,149.4,90z"/>
				<path class="st1" d="M340,136.6c-0.2-0.1-0.4-0.2-0.6-0.3c0.1-0.1,0.2-0.3,0.3-0.3c0.2,0,0.4,0.2,0.7,0.3
					C340.2,136.4,340.1,136.5,340,136.6z"/>
				<path class="st1" d="M303.4,73.6c0.1-0.2,0.2-0.4,0.3-0.6c0.1,0.1,0.3,0.2,0.3,0.3c-0.1,0.2-0.2,0.4-0.3,0.6
					C303.6,73.8,303.5,73.7,303.4,73.6z"/>
				<path class="st1" d="M213.3,163.1c-0.1,0.1-0.2,0.2-0.3,0.3c-0.1-0.2-0.3-0.4-0.3-0.6c0-0.1,0.2-0.2,0.3-0.3
					C213.1,162.7,213.2,162.9,213.3,163.1z"/>
				<path class="st1" d="M71.2,172.4c0.1-0.1,0.2-0.2,0.3-0.3c0.1,0.2,0.3,0.4,0.3,0.6c0,0.1-0.2,0.2-0.3,0.3
					C71.4,172.8,71.3,172.6,71.2,172.4z"/>
				<path class="st1" d="M214.3,173.6c-0.1,0.1-0.2,0.2-0.3,0.3c-0.1-0.2-0.3-0.4-0.3-0.6c0-0.1,0.2-0.2,0.3-0.3
					C214.1,173.2,214.2,173.4,214.3,173.6z"/>
				<path class="st1" d="M283.6,86.7c-0.1,0.2-0.2,0.4-0.3,0.6c-0.1-0.1-0.3-0.2-0.3-0.3c0.1-0.2,0.2-0.4,0.3-0.6
					C283.3,86.4,283.4,86.5,283.6,86.7z"/>
				<path class="st1" d="M281.6,66.7c-0.1,0.2-0.2,0.4-0.3,0.6c-0.1-0.1-0.3-0.2-0.3-0.3c0.1-0.2,0.2-0.4,0.3-0.6
					C281.4,66.4,281.5,66.5,281.6,66.7z"/>
				<path class="st1" d="M256.9,194.9c0.1,0.2,0.3,0.4,0.3,0.6c0,0.1-0.2,0.2-0.3,0.3c-0.1-0.2-0.3-0.4-0.3-0.6
					C256.6,195.1,256.8,195,256.9,194.9z"/>
				<path class="st1" d="M219,204.3c-0.2-0.1-0.4-0.2-0.6-0.3c0.1-0.1,0.2-0.3,0.3-0.3c0.2,0,0.4,0.2,0.7,0.3
					C219.2,204,219.1,204.1,219,204.3z"/>
				<path class="st1" d="M326.8,62.2c0.1-0.2,0.2-0.4,0.3-0.6c0.1,0.1,0.3,0.2,0.3,0.3c-0.1,0.2-0.2,0.4-0.3,0.6
					C327,62.4,326.9,62.3,326.8,62.2z"/>
				<path class="st1" d="M70.4,250.2c0.2,0.1,0.4,0.2,0.6,0.3c-0.1,0.1-0.2,0.3-0.3,0.3c-0.2,0-0.4-0.2-0.7-0.3
					C70.2,250.5,70.3,250.4,70.4,250.2z"/>
				<path class="st1" d="M237.7,258.3c-0.1,0.1-0.2,0.2-0.3,0.3c-0.1-0.2-0.3-0.4-0.3-0.6c0-0.1,0.2-0.2,0.3-0.3
					C237.5,257.9,237.6,258.1,237.7,258.3z"/>
				<path class="st1" d="M260.2,258.1c-0.1,0.2-0.2,0.4-0.3,0.6c-0.1-0.1-0.3-0.2-0.3-0.3c0.1-0.2,0.2-0.4,0.3-0.6
					C259.9,257.8,260,257.9,260.2,258.1z"/>
				<path class="st1" d="M248.4,259.3c-0.1,0.1-0.2,0.2-0.3,0.3c-0.1-0.2-0.3-0.4-0.3-0.6c0-0.1,0.2-0.2,0.3-0.3
					C248.2,258.9,248.3,259.1,248.4,259.3z"/>
				<path class="st1" d="M236.7,260.2c-0.1,0.1-0.2,0.2-0.3,0.3c-0.1-0.2-0.3-0.4-0.3-0.6c0-0.1,0.2-0.2,0.3-0.3
					C236.5,259.8,236.6,260,236.7,260.2z"/>
				<path class="st1" d="M261.9,58.6c-0.2-0.1-0.4-0.2-0.6-0.3c0.1-0.1,0.2-0.3,0.3-0.3c0.2,0,0.4,0.2,0.7,0.3
					C262.1,58.3,262,58.4,261.9,58.6z"/>
			</g>
			<g>
				<path class="st1" d="M6.2,260.6c-1-0.1-1.9-0.1-3.2-0.2c0.8-0.7,1.3-1.1,2.1-1.8C5.4,259.1,5.7,259.7,6.2,260.6z"/>
				<path class="st1" d="M57.8,118.3c-0.7-1.4-1.1-2.3-1.6-3.2c0.5-0.1,0.9-0.2,1.6-0.3C57.8,115.8,57.8,116.8,57.8,118.3z"/>
				<path class="st1" d="M-5.1,250.6c-0.6-0.7-1.2-1.1-1.1-1.2c0.2-0.4,0.6-0.9,1-1.1c0.1-0.1,0.9,0.4,0.9,0.7
					C-4.4,249.3-4.8,249.8-5.1,250.6z"/>
				<path class="st1" d="M115.8,98.2c0.4,0.8,0.7,1.2,0.7,1.7c0,0.2-0.8,0.8-0.9,0.7c-0.4-0.3-0.8-0.7-1-1.1
					C114.6,99.2,115.2,98.8,115.8,98.2z"/>
				<path class="st1" d="M92.8,223.3c-1.6,0.4-1.8-0.3-1.1-2.3C92.2,222,92.5,222.7,92.8,223.3z"/>
				<path class="st1" d="M27.9,19.9c-0.3-1.2,0.3-1.5,2.4-0.7C29.2,19.5,28.4,19.7,27.9,19.9z"/>
				<path class="st1" d="M-4.6,251.4c-1.4,0.5-2.1,0.7-2.4,0.8C-7.2,251.2-7.2,251.2-4.6,251.4z"/>
				<path class="st1" d="M48.7,5.7c-0.3,0.3-0.8,0.7-1.1,1C47.6,5.4,47.6,5.4,48.7,5.7z"/>
				<path class="st1" d="M232.7,8.9c-0.7,0-1.3,0-2,0c0-0.2,0-0.3,0-0.5c0.7,0,1.3,0,2,0C232.7,8.6,232.7,8.7,232.7,8.9z"/>
				<path class="st1" d="M22.8,155.9c0,0.5,0,1.1,0,1.6c-0.2,0-0.3,0-0.5,0.1c-0.1-0.5-0.3-1-0.4-1.5C22.2,156,22.5,156,22.8,155.9z
					"/>
				<path class="st1" d="M35.8,112.2c0.5,0,1.1,0,1.6,0c0,0.2,0.1,0.3,0.1,0.5c-0.5,0.1-1.1,0.2-1.6,0.4
					C35.9,112.7,35.8,112.4,35.8,112.2z"/>
				<path class="st1" d="M29.6,210.9c-0.5,0-1.1,0-1.6,0c0-0.2-0.1-0.3-0.1-0.5c0.5-0.1,1.1-0.2,1.6-0.4
					C29.6,210.3,29.6,210.6,29.6,210.9z"/>
				<path class="st1" d="M24.1,210.2c0.5,0,1.1,0,1.6,0c0,0.2,0,0.3,0.1,0.5c-0.5,0.1-1.1,0.2-1.6,0.3
					C24.1,210.8,24.1,210.5,24.1,210.2z"/>
				<path class="st1" d="M-3.2,47.4c0.5,0,1.1,0,1.6,0c0,0.2,0.1,0.3,0.1,0.5C-2,48-2.6,48.1-3.1,48.3C-3.2,47.9-3.2,47.7-3.2,47.4z
					"/>
				<path class="st1" d="M23.9,30.3c0.7,0,1.3,0,2,0c0,0.2,0,0.3,0,0.5c-0.7,0-1.3,0-2,0C23.9,30.7,23.9,30.5,23.9,30.3z"/>
				<path class="st1" d="M69.6,258c-0.1,0.2-0.2,0.4-0.3,0.6c-0.1-0.1-0.3-0.2-0.3-0.3c0.1-0.2,0.2-0.4,0.3-0.6
					C69.4,257.8,69.5,257.9,69.6,258z"/>
				<path class="st1" d="M-1.8,253.7c-0.2-0.1-0.4-0.2-0.6-0.3c0.1-0.1,0.2-0.3,0.3-0.3c0.2,0,0.4,0.2,0.7,0.3
					C-1.6,253.5-1.7,253.6-1.8,253.7z"/>
				<path class="st1" d="M34.8,251.4c0.1-0.1,0.2-0.2,0.3-0.3c0.1,0.2,0.3,0.4,0.3,0.6c0,0.1-0.2,0.2-0.3,0.3
					C35,251.8,34.9,251.6,34.8,251.4z"/>
				<path class="st1" d="M50.8,251c-0.1-0.2-0.3-0.4-0.3-0.6c0-0.1,0.2-0.2,0.3-0.3c0.1,0.2,0.3,0.4,0.3,0.6
					C51.1,250.8,50.9,250.9,50.8,251z"/>
				<path class="st1" d="M39.2,250.9c-0.2-0.1-0.4-0.2-0.6-0.3c0.1-0.1,0.2-0.3,0.3-0.3c0.2,0,0.4,0.2,0.7,0.3
					C39.4,250.6,39.3,250.8,39.2,250.9z"/>
				<path class="st1" d="M47.8,237.7c-0.1-0.2-0.3-0.4-0.3-0.6c0-0.1,0.2-0.2,0.3-0.3c0.1,0.2,0.3,0.4,0.3,0.6
					C48.1,237.4,47.9,237.6,47.8,237.7z"/>
				<path class="st1" d="M-5,231.2c0.2,0.1,0.4,0.2,0.6,0.3c-0.1,0.1-0.2,0.3-0.3,0.3c-0.2,0-0.4-0.2-0.7-0.3
					C-5.2,231.4-5.1,231.3-5,231.2z"/>
				<path class="st1" d="M-5,228.3c0.2,0.1,0.4,0.2,0.6,0.3c-0.1,0.1-0.2,0.3-0.3,0.3c-0.2,0-0.4-0.2-0.7-0.3
					C-5.2,228.5-5.1,228.4-5,228.3z"/>
				<path class="st1" d="M-8.1,223.1c0.1-0.2,0.2-0.4,0.3-0.6c0.1,0.1,0.3,0.2,0.3,0.3c-0.1,0.2-0.2,0.4-0.3,0.6
					C-7.9,223.3-8,223.2-8.1,223.1z"/>
				<path class="st1" d="M184.3,216.9c0.2,0.1,0.4,0.2,0.6,0.3c-0.1,0.1-0.2,0.3-0.3,0.3c-0.2,0-0.4-0.2-0.7-0.3
					C184,217.1,184.1,217,184.3,216.9z"/>
				<path class="st1" d="M46.5,203.7c0.1-0.1,0.2-0.2,0.3-0.3c0.1,0.2,0.3,0.4,0.3,0.6c0,0.1-0.2,0.2-0.3,0.3
					C46.7,204.1,46.6,203.9,46.5,203.7z"/>
				<path class="st1" d="M41.1,202.6c0.1,0.1,0.2,0.2,0.3,0.3c-0.2,0.1-0.4,0.2-0.7,0.3c-0.1,0-0.2-0.2-0.3-0.3
					C40.7,202.8,40.9,202.7,41.1,202.6z"/>
				<path class="st1" d="M36.6,202c0.2-0.1,0.4-0.2,0.7-0.3c0.1,0,0.2,0.2,0.3,0.3c-0.2,0.1-0.4,0.2-0.7,0.3
					C36.8,202.3,36.7,202.1,36.6,202z"/>
				<path class="st1" d="M31.8,201.4c0.3,0.2,0.5,0.4,0.8,0.7c-0.1,0.1-0.2,0.2-0.3,0.3c-0.2-0.3-0.5-0.5-0.7-0.8
					C31.7,201.5,31.8,201.5,31.8,201.4z"/>
				<path class="st1" d="M24.1,202.1c0.1-0.2,0.2-0.4,0.3-0.6c0.1,0.1,0.3,0.2,0.3,0.3c-0.1,0.2-0.2,0.4-0.3,0.6
					C24.3,202.3,24.2,202.2,24.1,202.1z"/>
				<path class="st1" d="M31.6,201.6c-0.3-0.2-0.5-0.4-0.8-0.7c0.1-0.1,0.2-0.2,0.3-0.3c0.2,0.3,0.5,0.5,0.7,0.8
					C31.8,201.5,31.7,201.5,31.6,201.6z"/>
				<path class="st1" d="M165.3,199.9c-0.1,0.2-0.2,0.4-0.3,0.6c-0.1-0.1-0.3-0.2-0.3-0.3c0.1-0.2,0.2-0.4,0.3-0.6
					C165,199.7,165.1,199.8,165.3,199.9z"/>
				<path class="st1" d="M166,98.7c-1.4,0.7-2.3,1.1-3.2,1.6c-0.1-0.5-0.2-0.9-0.3-1.6C163.6,98.7,164.5,98.7,166,98.7z"/>
				<path class="st1" d="M159.9,120.7c0-0.5,0-1.1,0-1.6c0.2,0,0.3-0.1,0.5-0.1c0.1,0.5,0.2,1.1,0.4,1.6
					C160.5,120.7,160.2,120.7,159.9,120.7z"/>
				<path class="st1" d="M137.9,101.9c-0.2,0.1-0.4,0.3-0.6,0.3c-0.1,0-0.2-0.2-0.3-0.3c0.2-0.1,0.4-0.3,0.6-0.3
					C137.6,101.6,137.7,101.8,137.9,101.9z"/>
				<path class="st1" d="M146.8,131.8c0.2,0.1,0.4,0.2,0.6,0.3c-0.1,0.1-0.2,0.3-0.3,0.3c-0.2-0.1-0.4-0.2-0.6-0.3
					C146.5,132,146.6,131.9,146.8,131.8z"/>
				<path class="st1" d="M153.7,124.7c-0.2-0.1-0.4-0.2-0.6-0.3c0.1-0.1,0.2-0.3,0.3-0.3c0.2,0.1,0.4,0.2,0.6,0.3
					C153.9,124.4,153.8,124.5,153.7,124.7z"/>
				<path class="st1" d="M133.7,112c-0.2-0.1-0.4-0.2-0.6-0.3c0.1-0.1,0.2-0.3,0.3-0.3c0.2,0.1,0.4,0.2,0.6,0.3
					C133.9,111.7,133.8,111.8,133.7,112z"/>
				<path class="st1" d="M153.7,110c-0.2-0.1-0.4-0.2-0.6-0.3c0.1-0.1,0.2-0.3,0.3-0.3c0.2,0.1,0.4,0.2,0.6,0.3
					C153.9,109.8,153.8,109.9,153.7,110z"/>
				<path class="st1" d="M161.8,90.3c0.1-0.2,0.2-0.4,0.3-0.6c0.1,0.1,0.3,0.2,0.3,0.3c0,0.2-0.2,0.4-0.3,0.7
					C162,90.5,161.9,90.4,161.8,90.3z"/>
				<path class="st1" d="M154.3,123c0.2,0.1,0.4,0.2,0.6,0.3c-0.1,0.1-0.2,0.3-0.3,0.3c-0.2,0-0.4-0.2-0.7-0.3
					C154,123.3,154.2,123.2,154.3,123z"/>
				<path class="st1" d="M135.3,106.1c-0.1,0.2-0.2,0.4-0.3,0.6c-0.1-0.1-0.3-0.2-0.3-0.3c0.1-0.2,0.2-0.4,0.3-0.6
					C135,105.9,135.1,106,135.3,106.1z"/>
				<path class="st1" d="M150.3,88.2c-1.4,0.7-2.3,1.1-3.2,1.6c-0.1-0.5-0.2-0.9-0.3-1.6C147.9,88.2,148.8,88.2,150.3,88.2z"/>
				<path class="st1" d="M144.2,110.2c0-0.5,0-1.1,0-1.6c0.2,0,0.3-0.1,0.5-0.1c0.1,0.5,0.2,1.1,0.4,1.6
					C144.8,110.1,144.5,110.2,144.2,110.2z"/>
				<path class="st1" d="M122.1,91.3c-0.2,0.1-0.4,0.3-0.6,0.3c-0.1,0-0.2-0.2-0.3-0.3c0.2-0.1,0.4-0.3,0.6-0.3
					C121.9,91,122,91.2,122.1,91.3z"/>
				<path class="st1" d="M131.1,121.2c0.2,0.1,0.4,0.2,0.6,0.3c-0.1,0.1-0.2,0.3-0.3,0.3c-0.2-0.1-0.4-0.2-0.6-0.3
					C130.8,121.5,130.9,121.4,131.1,121.2z"/>
				<path class="st1" d="M138,114.1c-0.2-0.1-0.4-0.2-0.6-0.3c0.1-0.1,0.2-0.3,0.3-0.3c0.2,0.1,0.4,0.2,0.6,0.3
					C138.2,113.9,138.1,114,138,114.1z"/>
				<path class="st1" d="M118,101.4c-0.2-0.1-0.4-0.2-0.6-0.3c0.1-0.1,0.2-0.3,0.3-0.3c0.2,0.1,0.4,0.2,0.6,0.3
					C118.2,101.2,118.1,101.3,118,101.4z"/>
				<path class="st1" d="M138,99.5c-0.2-0.1-0.4-0.2-0.6-0.3c0.1-0.1,0.2-0.3,0.3-0.3c0.2,0.1,0.4,0.2,0.6,0.3
					C138.2,99.3,138.1,99.4,138,99.5z"/>
				<path class="st1" d="M146.1,79.8c0.1-0.2,0.2-0.4,0.3-0.6c0.1,0.1,0.3,0.2,0.3,0.3c0,0.2-0.2,0.4-0.3,0.7
					C146.3,80,146.2,79.9,146.1,79.8z"/>
				<path class="st1" d="M138.6,112.5c0.2,0.1,0.4,0.2,0.6,0.3c-0.1,0.1-0.2,0.3-0.3,0.3c-0.2,0-0.4-0.2-0.7-0.3
					C138.3,112.7,138.4,112.6,138.6,112.5z"/>
				<path class="st1" d="M119.5,95.6c-0.1,0.2-0.2,0.4-0.3,0.6c-0.1-0.1-0.3-0.2-0.3-0.3c0.1-0.2,0.2-0.4,0.3-0.6
					C119.3,95.3,119.4,95.4,119.5,95.6z"/>
				<path class="st1" d="M75.3,200.4c-0.2-0.1-0.4-0.2-0.6-0.3c0.1-0.1,0.2-0.3,0.3-0.3c0.2,0,0.4,0.2,0.7,0.3
					C75.5,200.2,75.4,200.3,75.3,200.4z"/>
				<path class="st1" d="M43.6,188.5c0.1-0.1,0.2-0.2,0.3-0.3c0.1,0.2,0.3,0.4,0.3,0.6c0,0.1-0.2,0.2-0.3,0.3
					C43.8,188.9,43.7,188.7,43.6,188.5z"/>
				<path class="st1" d="M118.4,185.6c-0.1,0.2-0.2,0.4-0.3,0.6c-0.1-0.1-0.3-0.2-0.3-0.3c0.1-0.2,0.2-0.4,0.3-0.6
					C118.2,185.4,118.3,185.5,118.4,185.6z"/>
				<path class="st1" d="M118.7,179c0.1-0.1,0.2-0.2,0.3-0.3c0.1,0.2,0.3,0.4,0.3,0.6c0,0.1-0.2,0.2-0.3,0.3
					C118.9,179.4,118.8,179.2,118.7,179z"/>
				<path class="st1" d="M20.2,179c0.1-0.1,0.2-0.2,0.3-0.3c0.1,0.2,0.3,0.4,0.3,0.6c0,0.1-0.2,0.2-0.3,0.3
					C20.4,179.4,20.3,179.2,20.2,179z"/>
				<path class="st1" d="M73.3,177.8c0.1,0.1,0.2,0.2,0.3,0.3c-0.2,0.1-0.4,0.2-0.7,0.3c-0.1,0-0.2-0.2-0.3-0.3
					C72.9,178.1,73.1,177.9,73.3,177.8z"/>
				<path class="st1" d="M303,8.8c0.3,0.3,0.7,0.8,1,1.1C302.7,10,302.7,10,303,8.8z"/>
				<path class="st1" d="M290,57.4c0.2,0.1,0.4,0.2,0.6,0.3c-0.1,0.1-0.2,0.3-0.3,0.3c-0.2,0-0.4-0.2-0.7-0.3
					C289.7,57.6,289.9,57.5,290,57.4z"/>
				<path class="st1" d="M249.2,18c-0.5,0-1.1,0-1.6,0c0-0.2-0.1-0.3-0.1-0.5c0.5-0.1,1.1-0.2,1.6-0.4
					C249.1,17.5,249.2,17.7,249.2,18z"/>
				<path class="st1" d="M243.7,17.4c0.5,0,1.1,0,1.6,0c0,0.2,0,0.3,0.1,0.5c-0.5,0.1-1.1,0.2-1.6,0.3
					C243.7,17.9,243.7,17.6,243.7,17.4z"/>
				<path class="st1" d="M254.4,58.5c0.1-0.1,0.2-0.2,0.3-0.3c0.1,0.2,0.3,0.4,0.3,0.6c0,0.1-0.2,0.2-0.3,0.3
					C254.6,58.9,254.5,58.7,254.4,58.5z"/>
				<path class="st1" d="M270.3,58.2c-0.1-0.2-0.3-0.4-0.3-0.6c0-0.1,0.2-0.2,0.3-0.3c0.1,0.2,0.3,0.4,0.3,0.6
					C270.7,57.9,270.5,58.1,270.3,58.2z"/>
				<path class="st1" d="M258.8,58c-0.2-0.1-0.4-0.2-0.6-0.3c0.1-0.1,0.2-0.3,0.3-0.3c0.2,0.1,0.4,0.2,0.7,0.3
					C259,57.8,258.9,57.9,258.8,58z"/>
				<path class="st1" d="M266.1,10.9c0.1-0.1,0.2-0.2,0.3-0.3c0.1,0.2,0.3,0.4,0.3,0.6c0,0.1-0.2,0.2-0.3,0.3
					C266.3,11.3,266.2,11.1,266.1,10.9z"/>
				<path class="st1" d="M260.7,9.7c0.1,0.1,0.2,0.2,0.3,0.3c-0.2,0.1-0.4,0.2-0.7,0.3c-0.1,0-0.2-0.2-0.3-0.3
					C260.3,10,260.5,9.8,260.7,9.7z"/>
				<path class="st1" d="M256.2,9.1c0.2-0.1,0.4-0.2,0.7-0.3c0.1,0,0.2,0.2,0.3,0.3c-0.2,0.1-0.4,0.2-0.7,0.3
					C256.4,9.4,256.3,9.2,256.2,9.1z"/>
				<path class="st1" d="M294.9,7.6c-0.2-0.1-0.4-0.2-0.6-0.3c0.1-0.1,0.2-0.3,0.3-0.3c0.2,0,0.4,0.2,0.7,0.3
					C295.1,7.3,295,7.4,294.9,7.6z"/>
				<path class="st1" d="M263.2-4.4c0.1-0.1,0.2-0.2,0.3-0.3c0.1,0.2,0.3,0.4,0.3,0.6c0,0.1-0.2,0.2-0.3,0.3
					C263.4-3.9,263.3-4.2,263.2-4.4z"/>
				<path class="st1" d="M239.8-13.9c0.1-0.1,0.2-0.2,0.3-0.3c0.1,0.2,0.3,0.4,0.3,0.6c0,0.1-0.2,0.2-0.3,0.3
					C240-13.5,239.9-13.7,239.8-13.9z"/>
				<path class="st1" d="M320.4,40.7c0.3,0.3,0.7,0.8,1,1.1C320.1,41.8,320.1,41.8,320.4,40.7z"/>
				<path class="st1" d="M292.4,18.1c-0.2,0.1-0.4,0.3-0.6,0.3c-0.1,0-0.2-0.2-0.3-0.3c0.2-0.1,0.4-0.3,0.6-0.3
					C292.2,17.8,292.3,18,292.4,18.1z"/>
				<path class="st1" d="M307.3,89.2c0.2,0.1,0.4,0.2,0.6,0.3c-0.1,0.1-0.2,0.3-0.3,0.3c-0.2,0-0.4-0.2-0.7-0.3
					C307.1,89.4,307.2,89.3,307.3,89.2z"/>
				<path class="st1" d="M306.6,97c-0.1,0.2-0.2,0.4-0.3,0.6c-0.1-0.1-0.3-0.2-0.3-0.3c0.1-0.2,0.2-0.4,0.3-0.6
					C306.3,96.8,306.5,96.9,306.6,97z"/>
				<path class="st1" d="M271.7,90.3c0.1-0.1,0.2-0.2,0.3-0.3c0.1,0.2,0.3,0.4,0.3,0.6c0,0.1-0.2,0.2-0.3,0.3
					C272,90.7,271.9,90.5,271.7,90.3z"/>
				<path class="st1" d="M287.7,90c-0.1-0.2-0.3-0.4-0.3-0.6c0-0.1,0.2-0.2,0.3-0.3c0.1,0.2,0.3,0.4,0.3,0.6
					C288,89.8,287.8,89.9,287.7,90z"/>
				<path class="st1" d="M276.1,89.9c-0.2-0.1-0.4-0.2-0.6-0.3c0.1-0.1,0.2-0.3,0.3-0.3c0.2,0.1,0.4,0.2,0.7,0.3
					C276.4,89.6,276.3,89.7,276.1,89.9z"/>
				<path class="st1" d="M284.8,76.7c-0.1-0.2-0.3-0.4-0.3-0.6c0-0.1,0.2-0.2,0.3-0.3c0.1,0.2,0.3,0.4,0.3,0.6
					C285.1,76.4,284.9,76.6,284.8,76.7z"/>
				<path class="st1" d="M283.4,42.7c0.1-0.1,0.2-0.2,0.3-0.3c0.1,0.2,0.3,0.4,0.3,0.6c0,0.1-0.2,0.2-0.3,0.3
					C283.7,43.1,283.6,42.9,283.4,42.7z"/>
				<path class="st1" d="M312.2,39.4c-0.2-0.1-0.4-0.2-0.6-0.3c0.1-0.1,0.2-0.3,0.3-0.3c0.2,0,0.4,0.2,0.7,0.3
					C312.5,39.1,312.4,39.3,312.2,39.4z"/>
				<path class="st1" d="M280.5,27.5c0.1-0.1,0.2-0.2,0.3-0.3c0.1,0.2,0.3,0.4,0.3,0.6c0,0.1-0.2,0.2-0.3,0.3
					C280.8,27.9,280.6,27.7,280.5,27.5z"/>
				<path class="st1" d="M257.1,18c0.1-0.1,0.2-0.2,0.3-0.3c0.1,0.2,0.3,0.4,0.3,0.6c0,0.1-0.2,0.2-0.3,0.3
					C257.3,18.4,257.2,18.2,257.1,18z"/>
				<path class="st1" d="M310.3,16.8c0.1,0.1,0.2,0.2,0.3,0.3c-0.2,0.1-0.4,0.2-0.7,0.3c-0.1,0-0.2-0.2-0.3-0.3
					C309.9,17,310.1,16.9,310.3,16.8z"/>
				<path class="st1" d="M69.6,175.2c-0.1,0.2-0.2,0.4-0.3,0.6c-0.1-0.1-0.3-0.2-0.3-0.3c0.1-0.2,0.2-0.4,0.3-0.6
					C69.4,174.9,69.5,175,69.6,175.2z"/>
				<path class="st1" d="M51.6,167.1c-0.1-0.1-0.2-0.2-0.3-0.3c0.2-0.1,0.4-0.2,0.7-0.3c0.1,0,0.2,0.2,0.3,0.3
					C52,166.9,51.8,167,51.6,167.1z"/>
				<path class="st1" d="M199,114.8c-0.2,0.1-0.4,0.3-0.6,0.3c-0.1,0-0.2-0.2-0.3-0.3c0.2-0.1,0.4-0.3,0.6-0.3
					C198.8,114.5,198.9,114.7,199,114.8z"/>
				<path class="st1" d="M214.7,108.1c0.1-0.1,0.2-0.2,0.3-0.3c0.1,0.2,0.3,0.4,0.3,0.6c0,0.1-0.2,0.2-0.3,0.3
					C214.9,108.5,214.8,108.3,214.7,108.1z"/>
				<path class="st1" d="M187.1,124.2c0.1-0.1,0.2-0.2,0.3-0.3c0.1,0.2,0.3,0.4,0.3,0.6c0,0.1-0.2,0.2-0.3,0.3
					C187.3,124.6,187.2,124.4,187.1,124.2z"/>
				<path class="st1" d="M216.8,113.5c0.1,0.1,0.2,0.2,0.3,0.3c-0.2,0.1-0.4,0.2-0.7,0.3c-0.1,0-0.2-0.2-0.3-0.3
					C216.4,113.8,216.6,113.6,216.8,113.5z"/>
				<path class="st1" d="M213.1,110.9c-0.1,0.2-0.2,0.4-0.3,0.6c-0.1-0.1-0.3-0.2-0.3-0.3c0.1-0.2,0.2-0.4,0.3-0.6
					C212.9,110.6,213,110.7,213.1,110.9z"/>
				<path class="st1" d="M195.1,102.8c-0.1-0.1-0.2-0.2-0.3-0.3c0.2-0.1,0.4-0.2,0.7-0.3c0.1,0,0.2,0.2,0.3,0.3
					C195.5,102.6,195.3,102.7,195.1,102.8z"/>
				<path class="st1" d="M21.1,159c0.1-0.1,0.2-0.2,0.3-0.3c0.1,0.2,0.3,0.4,0.3,0.6c0,0.1-0.2,0.2-0.3,0.3
					C21.4,159.4,21.2,159.2,21.1,159z"/>
				<path class="st1" d="M3.8,159.5c-0.1-0.1-0.2-0.2-0.3-0.3c0.2-0.1,0.4-0.2,0.7-0.3c0.1,0,0.2,0.2,0.3,0.3
					C4.2,159.2,4,159.4,3.8,159.5z"/>
				<path class="st1" d="M116.1,153.9c-0.1-0.2-0.3-0.4-0.3-0.6c0-0.1,0.2-0.2,0.3-0.3c0.1,0.2,0.3,0.4,0.3,0.6
					C116.4,153.7,116.2,153.8,116.1,153.9z"/>
				<path class="st1" d="M-1,153.9c-0.1-0.2-0.3-0.4-0.3-0.6c0-0.1,0.2-0.2,0.3-0.3c0.1,0.2,0.3,0.4,0.3,0.6
					C-0.6,153.7-0.8,153.8-1,153.9z"/>
				<path class="st1" d="M13,146.6c-0.1,0.2-0.2,0.4-0.3,0.6c-0.1-0.1-0.3-0.2-0.3-0.3c0.1-0.2,0.2-0.4,0.3-0.6
					C12.8,146.4,12.9,146.5,13,146.6z"/>
				<path class="st1" d="M77.4,142.8c-0.1,0.2-0.2,0.4-0.3,0.6c-0.1-0.1-0.3-0.2-0.3-0.3c0.1-0.2,0.2-0.4,0.3-0.6
					C77.2,142.6,77.3,142.7,77.4,142.8z"/>
				<path class="st1" d="M54.7,90.1c-0.1-0.2-0.3-0.4-0.3-0.6c0-0.1,0.2-0.2,0.3-0.3c0.1,0.2,0.3,0.4,0.3,0.6
					C55,89.9,54.8,90,54.7,90.1z"/>
				<path class="st1" d="M86.5,55.2c0.1-0.1,0.2-0.2,0.3-0.3c0.1,0.2,0.3,0.4,0.3,0.6c0,0.1-0.2,0.2-0.3,0.3
					C86.7,55.6,86.6,55.4,86.5,55.2z"/>
				<path class="st1" d="M58.7,53.8c-0.2-0.1-0.4-0.2-0.6-0.3c0.1-0.1,0.2-0.3,0.3-0.3c0.2,0,0.4,0.2,0.7,0.3
					C58.9,53.5,58.8,53.6,58.7,53.8z"/>
				<path class="st1" d="M178.7,82.6c0.1,0.1,0.2,0.2,0.3,0.3c-0.2,0.1-0.4,0.2-0.7,0.3c-0.1,0-0.2-0.2-0.3-0.3
					C178.3,82.8,178.5,82.7,178.7,82.6z"/>
				<path class="st1" d="M-11.8,35.9c0.2,0.1,0.4,0.2,0.6,0.3c-0.1,0.1-0.2,0.3-0.3,0.3c-0.2,0-0.4-0.2-0.7-0.3
					C-12.1,36.2-12,36.1-11.8,35.9z"/>
				<path class="st1" d="M24.8,99c-0.1,0.2-0.2,0.4-0.3,0.6c-0.1-0.1-0.3-0.2-0.3-0.3c0.1-0.2,0.2-0.4,0.3-0.6
					C24.5,98.8,24.6,98.9,24.8,99z"/>
				<path class="st1" d="M114.8,9.5c0.1-0.1,0.2-0.2,0.3-0.3c0.1,0.2,0.3,0.4,0.3,0.6c0,0.1-0.2,0.2-0.3,0.3
					C115,9.9,114.9,9.7,114.8,9.5z"/>
				<path class="st1" d="M257,0.2c-0.1,0.1-0.2,0.2-0.3,0.3c-0.1-0.2-0.3-0.4-0.3-0.6c0-0.1,0.2-0.2,0.3-0.3
					C256.7-0.2,256.9,0,257,0.2z"/>
				<path class="st1" d="M113.8-1c0.1-0.1,0.2-0.2,0.3-0.3c0.1,0.2,0.3,0.4,0.3,0.6c0,0.1-0.2,0.2-0.3,0.3
					C114.1-0.6,113.9-0.8,113.8-1z"/>
				<path class="st1" d="M31.9,105.9c0.1-0.2,0.2-0.4,0.3-0.6c0.1,0.1,0.3,0.2,0.3,0.3c-0.1,0.2-0.2,0.4-0.3,0.6
					C32.1,106.2,32,106.1,31.9,105.9z"/>
				<path class="st1" d="M44.6,85.9c0.1-0.2,0.2-0.4,0.3-0.6c0.1,0.1,0.3,0.2,0.3,0.3c-0.1,0.2-0.2,0.4-0.3,0.6
					C44.8,86.2,44.7,86.1,44.6,85.9z"/>
				<path class="st1" d="M46.5,105.9c0.1-0.2,0.2-0.4,0.3-0.6c0.1,0.1,0.3,0.2,0.3,0.3c-0.1,0.2-0.2,0.4-0.3,0.6
					C46.7,106.2,46.6,106.1,46.5,105.9z"/>
				<path class="st1" d="M71.2-22.3c-0.1-0.2-0.3-0.4-0.3-0.6c0-0.1,0.2-0.2,0.3-0.3c0.1,0.2,0.3,0.4,0.3,0.6
					C71.6-22.5,71.3-22.4,71.2-22.3z"/>
				<path class="st1" d="M109.2-31.7c0.2,0.1,0.4,0.2,0.6,0.3c-0.1,0.1-0.2,0.3-0.3,0.3c-0.2,0-0.4-0.2-0.7-0.3
					C108.9-31.4,109-31.5,109.2-31.7z"/>
				<path class="st1" d="M1.3,110.4c-0.1,0.2-0.2,0.4-0.3,0.6c-0.1-0.1-0.3-0.2-0.3-0.3c0.1-0.2,0.2-0.4,0.3-0.6
					C1.1,110.2,1.2,110.3,1.3,110.4z"/>
				<path class="st1" d="M257.7-77.6c-0.2-0.1-0.4-0.2-0.6-0.3c0.1-0.1,0.2-0.3,0.3-0.3c0.2,0,0.4,0.2,0.7,0.3
					C258-77.9,257.9-77.8,257.7-77.6z"/>
				<path class="st1" d="M90.4-85.7c0.1-0.1,0.2-0.2,0.3-0.3c0.1,0.2,0.3,0.4,0.3,0.6c0,0.1-0.2,0.2-0.3,0.3
					C90.6-85.3,90.5-85.5,90.4-85.7z"/>
				<path class="st1" d="M68-85.5c0.1-0.2,0.2-0.4,0.3-0.6c0.1,0.1,0.3,0.2,0.3,0.3c-0.1,0.2-0.2,0.4-0.3,0.6
					C68.2-85.2,68.1-85.3,68-85.5z"/>
				<path class="st1" d="M79.7-86.7c0.1-0.1,0.2-0.2,0.3-0.3c0.1,0.2,0.3,0.4,0.3,0.6c0,0.1-0.2,0.2-0.3,0.3
					C79.9-86.3,79.8-86.5,79.7-86.7z"/>
				<path class="st1" d="M91.4-87.6c0.1-0.1,0.2-0.2,0.3-0.3c0.1,0.2,0.3,0.4,0.3,0.6c0,0.1-0.2,0.2-0.3,0.3
					C91.6-87.2,91.5-87.4,91.4-87.6z"/>
				<path class="st1" d="M66.2,114c0.2,0.1,0.4,0.2,0.6,0.3c-0.1,0.1-0.2,0.3-0.3,0.3c-0.2,0-0.4-0.2-0.7-0.3
					C66,114.3,66.1,114.2,66.2,114z"/>
				<path class="st1" d="M487.2,38.1c-0.8,0.4-1.2,0.7-1.7,0.7c-0.2,0-0.8-0.8-0.7-0.9c0.3-0.4,0.7-0.8,1.1-1
					C486.2,36.9,486.6,37.4,487.2,38.1z"/>
				<path class="st1" d="M429.4-55c-0.5,0-1.1,0-1.6,0c0-0.2,0-0.3-0.1-0.5c0.5-0.1,1-0.3,1.5-0.4C429.4-55.5,429.4-55.3,429.4-55z"
					/>
				<path class="st1" d="M473.2-42c0,0.5,0,1.1,0,1.6c-0.2,0-0.3,0.1-0.5,0.1c-0.1-0.5-0.2-1.1-0.4-1.6
					C472.7-41.9,472.9-41.9,473.2-42z"/>
				<path class="st1" d="M374.5-48.1c0-0.5,0-1.1,0-1.6c0.2,0,0.3-0.1,0.5-0.1c0.1,0.5,0.2,1.1,0.4,1.6
					C375.1-48.2,374.8-48.2,374.5-48.1z"/>
				<path class="st1" d="M375.1-53.7c0,0.5,0,1.1,0,1.6c-0.2,0-0.3,0-0.5,0.1c-0.1-0.5-0.2-1.1-0.3-1.6
					C374.6-53.6,374.9-53.6,375.1-53.7z"/>
				<path class="st1" d="M381.6-31.3c0.1,0.1,0.2,0.2,0.3,0.3c-0.2,0.1-0.4,0.3-0.6,0.3c-0.1,0-0.2-0.2-0.3-0.3
					C381.2-31,381.4-31.1,381.6-31.3z"/>
				<path class="st1" d="M382.8-36.6c-0.1,0.1-0.2,0.2-0.3,0.3c-0.1-0.2-0.2-0.4-0.3-0.7c0-0.1,0.2-0.2,0.3-0.3
					C382.6-37,382.7-36.8,382.8-36.6z"/>
				<path class="st1" d="M383.4-41.2c0.1,0.2,0.2,0.4,0.3,0.7c0,0.1-0.2,0.2-0.3,0.3c-0.1-0.2-0.2-0.4-0.3-0.7
					C383.1-40.9,383.3-41.1,383.4-41.2z"/>
				<path class="st1" d="M384-45.9c-0.2,0.3-0.4,0.5-0.7,0.8c-0.1-0.1-0.2-0.2-0.3-0.3c0.3-0.2,0.5-0.5,0.8-0.7
					C383.9-46.1,383.9-46,384-45.9z"/>
				<path class="st1" d="M383.3-53.7c0.2,0.1,0.4,0.2,0.6,0.3c-0.1,0.1-0.2,0.3-0.3,0.3c-0.2-0.1-0.4-0.2-0.6-0.3
					C383-53.5,383.1-53.6,383.3-53.7z"/>
				<path class="st1" d="M383.8-46.1c0.2-0.3,0.4-0.5,0.7-0.8c0.1,0.1,0.2,0.2,0.3,0.3c-0.3,0.2-0.5,0.5-0.8,0.7
					C383.9-46,383.8-46.1,383.8-46.1z"/>
				<path class="st1" d="M385.4,87.5c-0.2-0.1-0.4-0.2-0.6-0.3c0.1-0.1,0.2-0.3,0.3-0.3c0.2,0.1,0.4,0.2,0.6,0.3
					C385.7,87.2,385.6,87.4,385.4,87.5z"/>
				<path class="st1" d="M385-2.5c0.1-0.2,0.2-0.4,0.3-0.6c0.1,0.1,0.3,0.2,0.3,0.3c0,0.2-0.2,0.4-0.3,0.7
					C385.2-2.2,385.1-2.4,385-2.5z"/>
				<path class="st1" d="M396.9-34.2c0.1,0.1,0.2,0.2,0.3,0.3c-0.2,0.1-0.4,0.3-0.6,0.3c-0.1,0-0.2-0.2-0.3-0.3
					C396.5-34,396.7-34.1,396.9-34.2z"/>
				<path class="st1" d="M399.7,40.7c-0.2-0.1-0.4-0.2-0.6-0.3c0.1-0.1,0.2-0.3,0.3-0.3c0.2,0.1,0.4,0.2,0.6,0.3
					C400,40.4,399.9,40.5,399.7,40.7z"/>
				<path class="st1" d="M406.4,40.9c0.1,0.1,0.2,0.2,0.3,0.3c-0.2,0.1-0.4,0.3-0.6,0.3c-0.1,0-0.2-0.2-0.3-0.3
					C406,41.2,406.2,41,406.4,40.9z"/>
				<path class="st1" d="M406.4-57.6c0.1,0.1,0.2,0.2,0.3,0.3c-0.2,0.1-0.4,0.3-0.6,0.3c-0.1,0-0.2-0.2-0.3-0.3
					C406-57.4,406.2-57.5,406.4-57.6z"/>
				<path class="st1" d="M407.5-4.4c-0.1,0.1-0.2,0.2-0.3,0.3c-0.1-0.2-0.2-0.4-0.3-0.7c0-0.1,0.2-0.2,0.3-0.3
					C407.3-4.8,407.4-4.6,407.5-4.4z"/>
				<path class="st1" d="M410.2-8.1c-0.2-0.1-0.4-0.2-0.6-0.3c0.1-0.1,0.2-0.3,0.3-0.3c0.2,0.1,0.4,0.2,0.6,0.3
					C410.4-8.4,410.3-8.3,410.2-8.1z"/>
				<path class="st1" d="M418.3-26.2c0.1-0.1,0.2-0.2,0.3-0.3c0.1,0.2,0.2,0.4,0.3,0.7c0,0.1-0.2,0.2-0.3,0.3
					C418.5-25.8,418.4-26,418.3-26.2z"/>
				<path class="st1" d="M426.4-56.6c0.1,0.1,0.2,0.2,0.3,0.3c-0.2,0.1-0.4,0.3-0.6,0.3c-0.1,0-0.2-0.2-0.3-0.3
					C426-56.4,426.2-56.5,426.4-56.6z"/>
				<path class="st1" d="M425.9-74c0.1-0.1,0.2-0.2,0.3-0.3c0.1,0.2,0.2,0.4,0.3,0.7c0,0.1-0.2,0.2-0.3,0.3
					C426.1-73.6,426-73.8,425.9-74z"/>
				<path class="st1" d="M431.5,38.4c0.2-0.1,0.4-0.3,0.6-0.3c0.1,0,0.2,0.2,0.3,0.3c-0.2,0.1-0.4,0.3-0.6,0.3
					C431.7,38.7,431.6,38.5,431.5,38.4z"/>
				<path class="st1" d="M431.5-78.7c0.2-0.1,0.4-0.3,0.6-0.3c0.1,0,0.2,0.2,0.3,0.3c-0.2,0.1-0.4,0.3-0.6,0.3
					C431.7-78.4,431.6-78.6,431.5-78.7z"/>
				<path class="st1" d="M438.8-64.7c-0.2-0.1-0.4-0.2-0.6-0.3c0.1-0.1,0.2-0.3,0.3-0.3c0.2,0.1,0.4,0.2,0.6,0.3
					C439-65,438.9-64.8,438.8-64.7z"/>
				<path class="st1" d="M442.6-0.3c-0.2-0.1-0.4-0.2-0.6-0.3c0.1-0.1,0.2-0.3,0.3-0.3c0.2,0.1,0.4,0.2,0.6,0.3
					C442.8-0.6,442.7-0.5,442.6-0.3z"/>
				<path class="st1" d="M495.3-23.1c0.2-0.1,0.4-0.3,0.6-0.3c0.1,0,0.2,0.2,0.3,0.3c-0.2,0.1-0.4,0.3-0.6,0.3
					C495.5-22.8,495.4-23,495.3-23.1z"/>
				<path class="st1" d="M502.8,100.9c-0.1,0.1-0.2,0.2-0.3,0.3c-0.1-0.2-0.2-0.4-0.3-0.7c0-0.1,0.2-0.2,0.3-0.3
					C502.5,100.5,502.7,100.7,502.8,100.9z"/>
				<path class="st1" d="M486.4-53c-0.2-0.1-0.4-0.2-0.6-0.3c0.1-0.1,0.2-0.3,0.3-0.3c0.2,0.1,0.4,0.2,0.6,0.3
					C486.6-53.2,486.5-53.1,486.4-53z"/>
				<path class="st1" d="M479.4-45.9c0.2,0.1,0.4,0.2,0.6,0.3c-0.1,0.1-0.2,0.3-0.3,0.3c-0.2-0.1-0.4-0.2-0.6-0.3
					C479.2-45.7,479.3-45.8,479.4-45.9z"/>
				<path class="st1" d="M499.4-33.2c0.2,0.1,0.4,0.2,0.6,0.3c-0.1,0.1-0.2,0.3-0.3,0.3c-0.2-0.1-0.4-0.2-0.6-0.3
					C499.2-33,499.3-33.1,499.4-33.2z"/>
				<path class="st1" d="M479.4-31.3c0.2,0.1,0.4,0.2,0.6,0.3c-0.1,0.1-0.2,0.3-0.3,0.3c-0.2-0.1-0.4-0.2-0.6-0.3
					C479.2-31,479.3-31.1,479.4-31.3z"/>
				<path class="st1" d="M475-76.4c-0.2-0.1-0.4-0.2-0.6-0.3c0.1-0.1,0.2-0.3,0.3-0.3c0.2,0.1,0.4,0.2,0.6,0.3
					C475.2-76.7,475.1-76.6,475-76.4z"/>
				<path class="st1" d="M471.3-11.5c-0.1,0.2-0.2,0.4-0.3,0.6c-0.1-0.1-0.3-0.2-0.3-0.3c0-0.2,0.2-0.4,0.3-0.7
					C471.1-11.8,471.2-11.7,471.3-11.5z"/>
				<path class="st1" d="M510.9,134.5c0.8-0.4,1.2-0.7,1.7-0.7c0.2,0,0.8,0.8,0.7,0.9c-0.3,0.4-0.7,0.8-1.1,1
					C512,135.7,511.6,135.2,510.9,134.5z"/>
				<path class="st1" d="M432.7,222.5c-1.2,0.3-1.5-0.3-0.7-2.4C432.3,221.2,432.5,221.9,432.7,222.5z"/>
				<path class="st1" d="M418.4,201.7c0.3,0.3,0.7,0.8,1,1.1C418.2,202.8,418.2,202.8,418.4,201.7z"/>
				<path class="st1" d="M421.7,17.6c0,0.7,0,1.3,0,2c-0.2,0-0.3,0-0.5,0c0-0.7,0-1.3,0-2C421.4,17.6,421.5,17.6,421.7,17.6z"/>
				<path class="st1" d="M460.2,253.6c0-0.5,0-1.1,0-1.6c0.2,0,0.3-0.1,0.5-0.1c0.1,0.5,0.2,1.1,0.4,1.6
					C460.7,253.5,460.5,253.6,460.2,253.6z"/>
				<path class="st1" d="M443.1,226.4c0-0.7,0-1.3,0-2c0.2,0,0.3,0,0.5,0c0,0.7,0,1.3,0,2C443.4,226.4,443.3,226.4,443.1,226.4z"/>
				<path class="st1" d="M502.9,195.7c-0.2,0.1-0.4,0.3-0.6,0.3c-0.1,0-0.2-0.2-0.3-0.3c0.2-0.1,0.4-0.3,0.6-0.3
					C502.6,195.4,502.8,195.6,502.9,195.7z"/>
				<path class="st1" d="M468,163.9c-0.1-0.1-0.2-0.2-0.3-0.3c0.2-0.1,0.4-0.3,0.6-0.3c0.1,0,0.2,0.2,0.3,0.3
					C468.4,163.6,468.2,163.7,468,163.9z"/>
				<path class="st1" d="M466.5,191.7c-0.1,0.2-0.2,0.4-0.3,0.6c-0.1-0.1-0.3-0.2-0.3-0.3c0-0.2,0.2-0.4,0.3-0.7
					C466.3,191.4,466.4,191.5,466.5,191.7z"/>
				<path class="st1" d="M495.4,71.7c0.1-0.1,0.2-0.2,0.3-0.3c0.1,0.2,0.2,0.4,0.3,0.7c0,0.1-0.2,0.2-0.3,0.3
					C495.6,72.1,495.5,71.9,495.4,71.7z"/>
				<path class="st1" d="M448.7,262.2c0.1-0.2,0.2-0.4,0.3-0.6c0.1,0.1,0.3,0.2,0.3,0.3c0,0.2-0.2,0.4-0.3,0.7
					C449,262.4,448.9,262.3,448.7,262.2z"/>
				<path class="st1" d="M511.8,225.6c0.2,0.1,0.4,0.2,0.6,0.3c-0.1,0.1-0.2,0.3-0.3,0.3c-0.2-0.1-0.4-0.2-0.6-0.3
					C511.5,225.8,511.6,225.7,511.8,225.6z"/>
				<path class="st1" d="M422.3,135.6c-0.1-0.1-0.2-0.2-0.3-0.3c0.2-0.1,0.4-0.3,0.6-0.3c0.1,0,0.2,0.2,0.3,0.3
					C422.7,135.3,422.5,135.4,422.3,135.6z"/>
				<path class="st1" d="M413-6.6c0.1,0.1,0.2,0.2,0.3,0.3c-0.2,0.1-0.4,0.3-0.6,0.3c-0.1,0-0.2-0.2-0.3-0.3
					C412.6-6.4,412.8-6.5,413-6.6z"/>
				<path class="st1" d="M411.8,136.5c-0.1-0.1-0.2-0.2-0.3-0.3c0.2-0.1,0.4-0.3,0.6-0.3c0.1,0,0.2,0.2,0.3,0.3
					C412.2,136.3,412,136.4,411.8,136.5z"/>
				<path class="st1" d="M498.7,205.8c-0.2-0.1-0.4-0.2-0.6-0.3c0.1-0.1,0.2-0.3,0.3-0.3c0.2,0.1,0.4,0.2,0.6,0.3
					C499,205.6,498.8,205.7,498.7,205.8z"/>
				<path class="st1" d="M390.5,179.1c-0.2,0.1-0.4,0.3-0.6,0.3c-0.1,0-0.2-0.2-0.3-0.3c0.2-0.1,0.4-0.3,0.6-0.3
					C390.3,178.8,390.4,179,390.5,179.1z"/>
				<path class="st1" d="M381.1,141.2c0.1-0.2,0.2-0.4,0.3-0.6c0.1,0.1,0.3,0.2,0.3,0.3c0,0.2-0.2,0.4-0.3,0.7
					C381.4,141.4,381.2,141.3,381.1,141.2z"/>
				<path class="st1" d="M430.4,163.7c0.7,0,1.3,0,2,0c0,0.2,0,0.3,0,0.5c-0.7,0-1.3,0-2,0C430.4,164,430.4,163.8,430.4,163.7z"/>
				<path class="st1" d="M478.9-44.3c-0.2-0.1-0.4-0.2-0.6-0.3c0.1-0.1,0.2-0.3,0.3-0.3c0.2,0,0.4,0.2,0.7,0.3
					C479.1-44.5,479-44.4,478.9-44.3z"/>
				<path class="st1" d="M497.9-27.3c0.1-0.2,0.2-0.4,0.3-0.6c0.1,0.1,0.3,0.2,0.3,0.3c-0.1,0.2-0.2,0.4-0.3,0.6
					C498.1-27.1,498-27.2,497.9-27.3z"/>
				<path class="st1" d="M484.4,90c-0.1-0.1-0.2-0.2-0.3-0.3c0.2-0.1,0.4-0.2,0.7-0.3c0.1,0,0.2,0.2,0.3,0.3
					C484.9,89.8,484.6,89.9,484.4,90z"/>
				<path class="st1" d="M406.2,172.4c0.1-0.1,0.2-0.2,0.3-0.3c0.1,0.2,0.3,0.4,0.3,0.6c0,0.1-0.2,0.2-0.3,0.3
					C406.4,172.8,406.3,172.6,406.2,172.4z"/>
				<path class="st1" d="M405.4,250.2c0.2,0.1,0.4,0.2,0.6,0.3c-0.1,0.1-0.2,0.3-0.3,0.3c-0.2,0-0.4-0.2-0.7-0.3
					C405.2,250.5,405.3,250.4,405.4,250.2z"/>
				<path class="st1" d="M392.8,118.3c-0.7-1.4-1.1-2.3-1.6-3.2c0.5-0.1,0.9-0.2,1.6-0.3C392.8,115.8,392.8,116.8,392.8,118.3z"/>
				<path class="st1" d="M450.9,98.2c0.4,0.8,0.7,1.2,0.7,1.7c0,0.2-0.8,0.8-0.9,0.7c-0.4-0.3-0.8-0.7-1-1.1
					C449.7,99.2,450.2,98.8,450.9,98.2z"/>
				<path class="st1" d="M427.8,223.3c-1.6,0.4-1.8-0.3-1.1-2.3C427.2,222,427.5,222.7,427.8,223.3z"/>
				<path class="st1" d="M383.7,5.7c-0.3,0.3-0.8,0.7-1.1,1C382.6,5.4,382.6,5.4,383.7,5.7z"/>
				<path class="st1" d="M404.7,258c-0.1,0.2-0.2,0.4-0.3,0.6c-0.1-0.1-0.3-0.2-0.3-0.3c0.1-0.2,0.2-0.4,0.3-0.6
					C404.4,257.8,404.5,257.9,404.7,258z"/>
				<path class="st1" d="M385.8,251c-0.1-0.2-0.3-0.4-0.3-0.6c0-0.1,0.2-0.2,0.3-0.3c0.1,0.2,0.3,0.4,0.3,0.6
					C386.1,250.8,385.9,250.9,385.8,251z"/>
				<path class="st1" d="M374.2,250.9c-0.2-0.1-0.4-0.2-0.6-0.3c0.1-0.1,0.2-0.3,0.3-0.3c0.2,0,0.4,0.2,0.7,0.3
					C374.4,250.6,374.3,250.8,374.2,250.9z"/>
				<path class="st1" d="M382.8,237.7c-0.1-0.2-0.3-0.4-0.3-0.6c0-0.1,0.2-0.2,0.3-0.3c0.1,0.2,0.3,0.4,0.3,0.6
					C383.2,237.4,382.9,237.6,382.8,237.7z"/>
				<path class="st1" d="M381.5,203.7c0.1-0.1,0.2-0.2,0.3-0.3c0.1,0.2,0.3,0.4,0.3,0.6c0,0.1-0.2,0.2-0.3,0.3
					C381.7,204.1,381.6,203.9,381.5,203.7z"/>
				<path class="st1" d="M376.2,202.6c0.1,0.1,0.2,0.2,0.3,0.3c-0.2,0.1-0.4,0.2-0.7,0.3c-0.1,0-0.2-0.2-0.3-0.3
					C375.7,202.8,375.9,202.7,376.2,202.6z"/>
				<path class="st1" d="M500.3,199.9c-0.1,0.2-0.2,0.4-0.3,0.6c-0.1-0.1-0.3-0.2-0.3-0.3c0.1-0.2,0.2-0.4,0.3-0.6
					C500,199.7,500.1,199.8,500.3,199.9z"/>
				<path class="st1" d="M501,98.7c-1.4,0.7-2.3,1.1-3.2,1.6c-0.1-0.5-0.2-0.9-0.3-1.6C498.6,98.7,499.5,98.7,501,98.7z"/>
				<path class="st1" d="M494.9,120.7c0-0.5,0-1.1,0-1.6c0.2,0,0.3-0.1,0.5-0.1c0.1,0.5,0.2,1.1,0.4,1.6
					C495.5,120.7,495.2,120.7,494.9,120.7z"/>
				<path class="st1" d="M472.9,101.9c-0.2,0.1-0.4,0.3-0.6,0.3c-0.1,0-0.2-0.2-0.3-0.3c0.2-0.1,0.4-0.3,0.6-0.3
					C472.6,101.6,472.8,101.8,472.9,101.9z"/>
				<path class="st1" d="M481.8,131.8c0.2,0.1,0.4,0.2,0.6,0.3c-0.1,0.1-0.2,0.3-0.3,0.3c-0.2-0.1-0.4-0.2-0.6-0.3
					C481.5,132,481.7,131.9,481.8,131.8z"/>
				<path class="st1" d="M488.7,124.7c-0.2-0.1-0.4-0.2-0.6-0.3c0.1-0.1,0.2-0.3,0.3-0.3c0.2,0.1,0.4,0.2,0.6,0.3
					C489,124.4,488.8,124.5,488.7,124.7z"/>
				<path class="st1" d="M468.7,112c-0.2-0.1-0.4-0.2-0.6-0.3c0.1-0.1,0.2-0.3,0.3-0.3c0.2,0.1,0.4,0.2,0.6,0.3
					C469,111.7,468.9,111.8,468.7,112z"/>
				<path class="st1" d="M488.7,110c-0.2-0.1-0.4-0.2-0.6-0.3c0.1-0.1,0.2-0.3,0.3-0.3c0.2,0.1,0.4,0.2,0.6,0.3
					C489,109.8,488.8,109.9,488.7,110z"/>
				<path class="st1" d="M496.8,90.3c0.1-0.2,0.2-0.4,0.3-0.6c0.1,0.1,0.3,0.2,0.3,0.3c0,0.2-0.2,0.4-0.3,0.7
					C497,90.5,496.9,90.4,496.8,90.3z"/>
				<path class="st1" d="M489.3,123c0.2,0.1,0.4,0.2,0.6,0.3c-0.1,0.1-0.2,0.3-0.3,0.3c-0.2,0-0.4-0.2-0.7-0.3
					C489.1,123.3,489.2,123.2,489.3,123z"/>
				<path class="st1" d="M470.3,106.1c-0.1,0.2-0.2,0.4-0.3,0.6c-0.1-0.1-0.3-0.2-0.3-0.3c0.1-0.2,0.2-0.4,0.3-0.6
					C470,105.9,470.1,106,470.3,106.1z"/>
				<path class="st1" d="M485.3,88.2c-1.4,0.7-2.3,1.1-3.2,1.6c-0.1-0.5-0.2-0.9-0.3-1.6C482.9,88.2,483.8,88.2,485.3,88.2z"/>
				<path class="st1" d="M479.2,110.2c0-0.5,0-1.1,0-1.6c0.2,0,0.3-0.1,0.5-0.1c0.1,0.5,0.2,1.1,0.4,1.6
					C479.8,110.1,479.5,110.2,479.2,110.2z"/>
				<path class="st1" d="M457.2,91.3c-0.2,0.1-0.4,0.3-0.6,0.3c-0.1,0-0.2-0.2-0.3-0.3c0.2-0.1,0.4-0.3,0.6-0.3
					C456.9,91,457.1,91.2,457.2,91.3z"/>
				<path class="st1" d="M466.1,121.2c0.2,0.1,0.4,0.2,0.6,0.3c-0.1,0.1-0.2,0.3-0.3,0.3c-0.2-0.1-0.4-0.2-0.6-0.3
					C465.8,121.5,465.9,121.4,466.1,121.2z"/>
				<path class="st1" d="M473,114.1c-0.2-0.1-0.4-0.2-0.6-0.3c0.1-0.1,0.2-0.3,0.3-0.3c0.2,0.1,0.4,0.2,0.6,0.3
					C473.2,113.9,473.1,114,473,114.1z"/>
				<path class="st1" d="M453,101.4c-0.2-0.1-0.4-0.2-0.6-0.3c0.1-0.1,0.2-0.3,0.3-0.3c0.2,0.1,0.4,0.2,0.6,0.3
					C453.2,101.2,453.1,101.3,453,101.4z"/>
				<path class="st1" d="M473,99.5c-0.2-0.1-0.4-0.2-0.6-0.3c0.1-0.1,0.2-0.3,0.3-0.3c0.2,0.1,0.4,0.2,0.6,0.3
					C473.2,99.3,473.1,99.4,473,99.5z"/>
				<path class="st1" d="M481.1,79.8c0.1-0.2,0.2-0.4,0.3-0.6c0.1,0.1,0.3,0.2,0.3,0.3c0,0.2-0.2,0.4-0.3,0.7
					C481.3,80,481.2,79.9,481.1,79.8z"/>
				<path class="st1" d="M473.6,112.5c0.2,0.1,0.4,0.2,0.6,0.3c-0.1,0.1-0.2,0.3-0.3,0.3c-0.2,0-0.4-0.2-0.7-0.3
					C473.3,112.7,473.5,112.6,473.6,112.5z"/>
				<path class="st1" d="M454.6,95.6c-0.1,0.2-0.2,0.4-0.3,0.6c-0.1-0.1-0.3-0.2-0.3-0.3c0.1-0.2,0.2-0.4,0.3-0.6
					C454.3,95.3,454.4,95.4,454.6,95.6z"/>
				<path class="st1" d="M410.3,200.4c-0.2-0.1-0.4-0.2-0.6-0.3c0.1-0.1,0.2-0.3,0.3-0.3c0.2,0,0.4,0.2,0.7,0.3
					C410.5,200.2,410.4,200.3,410.3,200.4z"/>
				<path class="st1" d="M378.6,188.5c0.1-0.1,0.2-0.2,0.3-0.3c0.1,0.2,0.3,0.4,0.3,0.6c0,0.1-0.2,0.2-0.3,0.3
					C378.8,188.9,378.7,188.7,378.6,188.5z"/>
				<path class="st1" d="M453.4,185.6c-0.1,0.2-0.2,0.4-0.3,0.6c-0.1-0.1-0.3-0.2-0.3-0.3c0.1-0.2,0.2-0.4,0.3-0.6
					C453.2,185.4,453.3,185.5,453.4,185.6z"/>
				<path class="st1" d="M453.7,179c0.1-0.1,0.2-0.2,0.3-0.3c0.1,0.2,0.3,0.4,0.3,0.6c0,0.1-0.2,0.2-0.3,0.3
					C453.9,179.4,453.8,179.2,453.7,179z"/>
				<path class="st1" d="M408.3,177.8c0.1,0.1,0.2,0.2,0.3,0.3c-0.2,0.1-0.4,0.2-0.7,0.3c-0.1,0-0.2-0.2-0.3-0.3
					C407.9,178.1,408.1,177.9,408.3,177.8z"/>
				<path class="st1" d="M404.7,175.2c-0.1,0.2-0.2,0.4-0.3,0.6c-0.1-0.1-0.3-0.2-0.3-0.3c0.1-0.2,0.2-0.4,0.3-0.6
					C404.4,174.9,404.5,175,404.7,175.2z"/>
				<path class="st1" d="M386.6,167.1c-0.1-0.1-0.2-0.2-0.3-0.3c0.2-0.1,0.4-0.2,0.7-0.3c0.1,0,0.2,0.2,0.3,0.3
					C387,166.9,386.8,167,386.6,167.1z"/>
				<path class="st1" d="M451.1,153.9c-0.1-0.2-0.3-0.4-0.3-0.6c0-0.1,0.2-0.2,0.3-0.3c0.1,0.2,0.3,0.4,0.3,0.6
					C451.5,153.7,451.2,153.8,451.1,153.9z"/>
				<path class="st1" d="M412.5,142.8c-0.1,0.2-0.2,0.4-0.3,0.6c-0.1-0.1-0.3-0.2-0.3-0.3c0.1-0.2,0.2-0.4,0.3-0.6
					C412.2,142.6,412.3,142.7,412.5,142.8z"/>
				<path class="st1" d="M389.7,90.1c-0.1-0.2-0.3-0.4-0.3-0.6c0-0.1,0.2-0.2,0.3-0.3c0.1,0.2,0.3,0.4,0.3,0.6
					C390,89.9,389.8,90,389.7,90.1z"/>
				<path class="st1" d="M421.5,55.2c0.1-0.1,0.2-0.2,0.3-0.3c0.1,0.2,0.3,0.4,0.3,0.6c0,0.1-0.2,0.2-0.3,0.3
					C421.8,55.6,421.6,55.4,421.5,55.2z"/>
				<path class="st1" d="M393.7,53.8c-0.2-0.1-0.4-0.2-0.6-0.3c0.1-0.1,0.2-0.3,0.3-0.3c0.2,0,0.4,0.2,0.7,0.3
					C394,53.5,393.8,53.6,393.7,53.8z"/>
				<path class="st1" d="M513.7,82.6c0.1,0.1,0.2,0.2,0.3,0.3c-0.2,0.1-0.4,0.2-0.7,0.3c-0.1,0-0.2-0.2-0.3-0.3
					C513.3,82.8,513.5,82.7,513.7,82.6z"/>
				<path class="st1" d="M449.8,9.5c0.1-0.1,0.2-0.2,0.3-0.3c0.1,0.2,0.3,0.4,0.3,0.6c0,0.1-0.2,0.2-0.3,0.3
					C450,9.9,449.9,9.7,449.8,9.5z"/>
				<path class="st1" d="M448.8-1c0.1-0.1,0.2-0.2,0.3-0.3c0.1,0.2,0.3,0.4,0.3,0.6c0,0.1-0.2,0.2-0.3,0.3
					C449.1-0.6,449-0.8,448.8-1z"/>
				<path class="st1" d="M379.6,85.9c0.1-0.2,0.2-0.4,0.3-0.6c0.1,0.1,0.3,0.2,0.3,0.3c-0.1,0.2-0.2,0.4-0.3,0.6
					C379.8,86.2,379.7,86.1,379.6,85.9z"/>
				<path class="st1" d="M381.5,105.9c0.1-0.2,0.2-0.4,0.3-0.6c0.1,0.1,0.3,0.2,0.3,0.3c-0.1,0.2-0.2,0.4-0.3,0.6
					C381.8,106.2,381.6,106.1,381.5,105.9z"/>
				<path class="st1" d="M406.3-22.3c-0.1-0.2-0.3-0.4-0.3-0.6c0-0.1,0.2-0.2,0.3-0.3c0.1,0.2,0.3,0.4,0.3,0.6
					C406.6-22.5,406.4-22.4,406.3-22.3z"/>
				<path class="st1" d="M444.2-31.7c0.2,0.1,0.4,0.2,0.6,0.3c-0.1,0.1-0.2,0.3-0.3,0.3c-0.2,0-0.4-0.2-0.7-0.3
					C443.9-31.4,444-31.5,444.2-31.7z"/>
				<path class="st1" d="M425.4-85.7c0.1-0.1,0.2-0.2,0.3-0.3c0.1,0.2,0.3,0.4,0.3,0.6c0,0.1-0.2,0.2-0.3,0.3
					C425.7-85.3,425.5-85.5,425.4-85.7z"/>
				<path class="st1" d="M403-85.5c0.1-0.2,0.2-0.4,0.3-0.6c0.1,0.1,0.3,0.2,0.3,0.3c-0.1,0.2-0.2,0.4-0.3,0.6
					C403.2-85.2,403.1-85.3,403-85.5z"/>
				<path class="st1" d="M414.7-86.7c0.1-0.1,0.2-0.2,0.3-0.3c0.1,0.2,0.3,0.4,0.3,0.6c0,0.1-0.2,0.2-0.3,0.3
					C414.9-86.3,414.8-86.5,414.7-86.7z"/>
				<path class="st1" d="M426.4-87.6c0.1-0.1,0.2-0.2,0.3-0.3c0.1,0.2,0.3,0.4,0.3,0.6c0,0.1-0.2,0.2-0.3,0.3
					C426.6-87.2,426.5-87.4,426.4-87.6z"/>
				<path class="st1" d="M401.2,114c0.2,0.1,0.4,0.2,0.6,0.3c-0.1,0.1-0.2,0.3-0.3,0.3c-0.2,0-0.4-0.2-0.7-0.3
					C401,114.3,401.1,114.2,401.2,114z"/>
			</g>
		</g>
	</g>
</g>
<g id="Layer_3">
	<g>
		<path class="st1" d="M237,44.7l-0.6-1.6l-6.5-17.6l-4.6,2.6c0,0,4.5,8.3,7.4,13.8c-1.6,0.3-3.4,1.4-4.8,3c-2.5,2.9-3,6.6-1.1,8.2
			c1.9,1.6,5.5,0.6,8-2.3C236.5,48.8,237.3,46.5,237,44.7L237,44.7L237,44.7z"/>
		<path class="st1" d="M328.1,47l0.2-1.7l2.1-18.7l-22.9-7.7c0,0,0.7,14.5,0.8,18.2c-1.6-0.5-3.6-0.3-5.6,0.5
			c-3.5,1.5-5.6,4.6-4.7,6.9c1,2.3,4.6,3,8.2,1.5c2.3-1,4.1-2.7,4.7-4.4l0,0l0,0l0.2-1.7l1.5-13.1l12.6,4c0.1,3.3,0.2,8,0.3,11.6
			C324,42,322,42.2,320,43c-3.5,1.5-5.6,4.6-4.7,6.9c1,2.3,4.6,3,8.2,1.5C325.8,50.4,327.5,48.7,328.1,47L328.1,47L328.1,47z"/>
		<path class="st1" d="M288.9,115.3l0.4-1.3l4.9-14.4l-16.8-10.1c0,0-2,11.6-2.5,14.6c-1.2-0.6-2.8-0.9-4.6-0.6
			c-3.1,0.6-5.2,2.6-4.9,4.6c0.4,2,3.1,3.2,6.2,2.6c2-0.4,3.7-1.4,4.5-2.6l0,0l0,0l0.4-1.3l3.5-10.1l9.3,5.4
			c-0.5,2.6-1.2,6.4-1.8,9.3c-1.2-0.6-2.8-0.9-4.6-0.6c-3.1,0.6-5.2,2.6-4.9,4.6c0.4,2,3.1,3.2,6.2,2.6
			C286.5,117.6,288.1,116.6,288.9,115.3L288.9,115.3L288.9,115.3z"/>
		<path class="st1" d="M211,82.2c1.3-0.4,2.9-0.4,4,0.5c-0.5-1.6-2.2-2.8-3.9-2.8c-1.6,0-3,0.9-4.5,1.2c-0.3,0.1-0.5,0.1-0.8,0.1
			c-1.4,0.1-4.3-0.8-4.3-0.8s5.5,10.8,7.1,14c-1.6,0.3-3.4,1.3-4.9,2.9c-2.6,2.9-3.1,6.5-1.3,8.2c1.9,1.7,5.5,0.7,8-2.1
			c1.7-1.9,2.5-4.1,2.3-5.9l0,0l0,0l0,0l-0.5-1.6l0,0L207,84c0,0,0.1,0,0.1-0.1C208.5,83.4,209.7,82.7,211,82.2z"/>
		<path class="st1" d="M329.4,133.3c-1.6-0.1-3,0.7-4.6,1c-0.2,0-0.4,0.1-0.7,0.1l-0.7-1.8h0.1c1.3-0.4,2.6-1.1,4-1.5s3-0.3,4,0.7
			c-0.5-1.6-2-2.9-3.8-3c-1.6-0.1-3,0.7-4.6,1c-0.3,0-0.5,0.1-0.8,0.1c-1.4,0.1-4.3-1-4.3-1s5,11.4,6.3,14.3c-0.1,0-0.3,0-0.4,0.1
			c-1.5,0.3-3.2,1.2-4.6,2.6c-2.7,2.7-3.5,6.3-1.7,8.1c0.2,0.2,0.5,0.4,0.8,0.6c1.9,0.9,5,0.1,7.3-2.3c1.8-1.8,2.7-4,2.7-5.8l0,0
			l0,0l-0.5-1.6l0,0l-2.9-7.5c1.3-0.4,2.6-1.1,3.9-1.5c1.4-0.3,3-0.3,4,0.7C332.7,134.7,331.1,133.4,329.4,133.3z"/>
	</g>

		<animateTransform  accumulate="none" additive="replace" attributeName="transform" attributeType="XML" calcMode="linear" dur="5s" fill="remove" repeatCount="indefinite" restart="always" type="translate" values="0,-15;0,10;0,-15">
		</animateTransform>
</g>
<g id="Layer_4">
	<polygon class="st1" points="431,-27.9 430,-27 430,-25.8 431.2,-25.2 432.7,-25.9 544,-102 	">

		<animateTransform  accumulate="none" additive="replace" attributeName="transform" attributeType="XML" calcMode="linear" dur="10s" fill="remove" from="1800 -1500" repeatCount="indefinite" restart="always" to="-3600 2950" type="translate">
		</animateTransform>
	</polygon>
	<polygon class="st1" points="526.8,-6.3 526.3,-5.9 526.3,-5.3 526.9,-5 527.6,-5.3 584.1,-43.9 	">

		<animateTransform  accumulate="none" additive="replace" attributeName="transform" attributeType="XML" calcMode="linear" dur="18s" fill="remove" from="4500 -4000" repeatCount="indefinite" restart="always" to="-4500 4000" type="translate">
		</animateTransform>
	</polygon>
	<polygon class="st1" points="451.4,-80.4 450.8,-79.9 450.8,-79.1 451.6,-78.7 452.5,-79.2 523.8,-127.9 	">

		<animateTransform  accumulate="none" additive="replace" attributeName="transform" attributeType="XML" calcMode="linear" dur="23s" fill="remove" from="9000 -8000" repeatCount="indefinite" restart="always" to="-4700 4000" type="translate">
		</animateTransform>
	</polygon>
</g>
<g id="Layer_1_1_">
	<g>
		<g>
			<g>
				<path class="st2" d="M88.7,174.7c0.2,0.3,0.1,0.9,0.3,1.3c0.2,0.4,0.3,0.8,0.5,1.2s0.5,0.7,0.7,1.1c0.2,0.4,0.3,0.8,0.5,1.2
					c0.1,0.4,0,0.9,0.2,1.3c0.1,0.4,0.6,0.7,0.7,1.1c0.1,0.4,0.3,0.8,0.4,1.2s0.1,0.8,0.3,1.2c0.1,0.4,0.5,0.7,0.7,1.1
					c0.1,0.4,0.2,0.8,0.3,1.2c0.1,0.4,0.1,0.8,0.3,1.2c0.1,0.4,0.4,0.7,0.6,1.1c0.1,0.4,0.1,0.9,0.2,1.3c0.1,0.4,0.4,0.8,0.5,1.1
					c0.1,0.4,0.3,0.8,0.4,1.2s-0.1,0.9,0,1.3c0.1,0.4,0.5,0.7,0.6,1.1c0.1,0.4,0.2,0.8,0.3,1.2c0.1,0.4,0.1,0.9,0.2,1.2
					c0.1,0.4,0.3,0.8,0.4,1.2c0.1,0.5,0.5,0.8,0.6,1.1c0.1,0.2,0.1,0.4,0,0.5h28.3c-0.1-0.1-0.2-0.3-0.2-0.5
					c-0.1-0.6-0.3-0.6-0.4-1.2c-0.1-0.6-0.3-0.6-0.4-1.2c-0.1-0.6-0.2-0.6-0.3-1.3c-0.1-0.6,0.1-0.7-0.1-1.3
					c-0.1-0.6-0.3-0.6-0.5-1.2c-0.1-0.6,0.1-0.7,0-1.3s-0.1-0.7-0.2-1.3s-1-0.9-0.5-1.3c0.5-0.4,0.6,0.4,1,0.8
					c0.5,0.4,0.5,0.4,1,0.8c0.5,0.4,0.5,0.4,1,0.8c0.5,0.4,0.5,0.3,1,0.7s0.5,0.4,1,0.8c0.5,0.4,0.5,0.3,1,0.7s0.3,0.6,0.8,0.9
					c0.5,0.4,0.6,0.3,1.1,0.7s0.3,0.6,0.8,0.9c0.5,0.4,0.6,0.2,1.1,0.6c0.5,0.4,0.5,0.3,1,0.7s0.5,0.4,1,0.8
					c0.5,0.4,0.4,0.6,0.8,0.9c0.5,0.4,0.6,0.2,1.1,0.6c0.1,0,0.1,0.1,0.1,0.1h34.6c-0.1-0.1-0.2-0.2-0.2-0.3c-0.2-0.3-0.5-0.6-0.8-1
					c-0.2-0.3-0.2-0.9-0.4-1.3c-0.2-0.3-0.6-0.6-0.9-1c-0.2-0.3-0.5-0.7-0.8-1c-0.2-0.3-0.3-0.8-0.5-1.2c-0.2-0.3-0.6-0.6-0.8-1
					s-0.4-0.8-0.6-1.1c-0.2-0.4-0.6-0.6-0.8-1s-0.5-0.7-0.7-1.1c-0.2-0.4-0.6-0.6-0.8-1c-0.2-0.3-0.3-0.7-0.6-1.1
					c-0.2-0.3-0.4-0.7-0.7-1.1c-0.2-0.3-0.4-0.7-0.6-1.1c-0.2-0.3-0.2-0.8-0.4-1.2c-0.2-0.3-0.6-0.6-0.9-0.9c-0.2-0.3-0.5-0.7-0.7-1
					s-0.1-0.9-0.3-1.2c-0.2-0.4-0.6-0.6-0.8-1s-0.2-0.8-0.5-1.2c-0.2-0.4-0.4-0.7-0.7-1.1c-0.2-0.4-0.4-0.7-0.6-1.1
					c-0.2-0.4-0.6-0.6-0.8-0.9c-0.2-0.4-0.5-0.7-0.7-1c-0.2-0.4-0.2-0.8-0.4-1.2s-0.3-0.8-0.5-1.1c-0.2-0.4-0.4-0.7-0.7-1.1
					c-0.2-0.4-0.7-0.6-0.9-0.9c-0.2-0.4-0.3-0.8-0.5-1.2s-0.2-0.8-0.4-1.2s-0.4-0.7-0.6-1.1c-0.2-0.4-0.7-0.6-0.9-0.9
					c-0.2-0.4-0.2-0.8-0.4-1.2s-0.4-0.8-0.6-1.1c-0.2-0.4-0.7-0.6-0.9-0.9c-0.2-0.4-0.3-0.9-0.4-1.2c-0.4-0.7-0.9-0.5-0.7-1.1
					c0.2-0.5,0.5-0.2,1.1-0.6c0.3-0.2,0.7-0.3,1-0.6c0.3-0.2,0.5-0.6,0.8-0.9c0.3-0.3,0.7-0.4,1-0.7c0.2-0.3,0.2-0.8,0.3-1.2
					s0.4-0.7,0.4-1.1c0.6,0.2,0.3,0.4,0.6,1.1c0.2,0.3,0.4,0.7,0.6,1c0.2,0.3,0.5,0.6,0.9,0.8c0.3,0.3,0.6,0.6,1,0.8
					c0.3,0.1,0.7-0.1,1.3,0c0.4,0,0.8,0.2,1.2,0.2s0.8,0.1,1.3,0.1c0.4,0,0.8-0.1,1.3-0.1c0.4,0,0.8,0.4,1.3,0.4c0.4,0,0.8,0,1.3,0
					c0.4,0,0.8-0.4,1.3-0.4c0.4,0,0.9,0.3,1.3,0.3c0.4,0,0.8-0.4,1.2-0.4s0.9,0.1,1.3,0c0.4,0,0.9,0.1,1.3,0.1
					c0.5,0,0.9-0.3,1.2-0.4c0.6-0.1,1-0.2,1.2-0.3s0.5-0.4,0.4-1c0-0.4-0.1-0.8-0.2-1.2c-0.1-0.4-0.3-0.8-0.4-1.2
					c-0.1-0.4,0.2-0.9,0.1-1.3c-0.1-0.4-0.4-0.7-0.5-1.2c-0.1-0.4-0.1-0.8-0.2-1.2c-0.1-0.4-0.4-0.8-0.5-1.1
					c-0.1-0.4-0.5-0.7-0.6-1.1c-0.2-0.4-0.1-0.9-0.2-1.3c-0.2-0.5-0.5-0.8-0.6-1.1c-0.2-0.3-0.4-0.8-0.8-1.1
					c-0.3-0.2-0.7-0.5-1.1-0.7c-0.4-0.2-0.9,0-1.3-0.2c-0.4-0.2-0.7-0.6-1.1-0.8c-0.4-0.2-0.8-0.2-1.2-0.4c-0.4-0.1-0.8-0.2-1.2-0.4
					c-0.5-0.1-0.8-0.5-1.2-0.6c-0.7-0.2-0.7,0.2-1.2-0.3c-0.4-0.4-0.3-0.4-0.6-1c-0.2-0.3-0.4-0.6-0.7-0.9c-0.3-0.3-0.6-0.6-1-0.6
					c-0.2-0.6,0.1-0.7-0.2-1.3c-0.2-0.4-0.3-0.7-0.9-0.9c-0.5-0.5,0-0.6-0.2-1.4c-0.1-0.4-0.2-0.9-0.3-1.3c-0.1-0.4-0.6-0.8-0.7-1.2
					c-0.1-0.5-0.1-1-0.2-1.4c-0.1-0.6,0-1.1-0.1-1.4c-0.1-0.4,0-0.8,0-1.3s-0.1-0.9-0.2-1.3c-0.1-0.5-0.5-0.9-0.8-1.1
					c0-0.6,0.4-0.6,0.7-1.2c0.2-0.4,0.6-0.8,0.6-1.2c0-0.4-0.4-0.8-0.5-1.2c-0.2-0.6-0.3-0.6-0.4-1.2c-0.1-0.6,0.3-0.5,0.3-1.3
					c0-0.4-0.2-0.8-0.1-1.3c0-0.4,0.1-0.8,0.2-1.2c0-0.4,0.2-0.8,0.2-1.2c0-0.4,0.1-0.8,0.2-1.2c0.1-0.4,0.1-0.8,0.1-1.3
					c0.1-0.4,0.3-0.8,0.4-1.2c0.1-0.4,0-0.9,0-1.3c0.1-0.4,0-0.9,0.1-1.3s0.3-0.8,0.4-1.2c0.1-0.5,0.5-0.8,0.6-1.1
					c0.2-0.3,0.1-0.8,0.3-1.3c0.1-0.4,0.4-0.7,0.6-1.2c0.1-0.4,0.1-0.8,0.3-1.3c0.1-0.4,0.3-0.8,0.4-1.2c0.1-0.4,0.2-0.8,0.3-1.3
					c0.1-0.4,0.1-0.9,0.2-1.3c0.1-0.5,0.2-0.9,0.3-1.3c0.2-0.8,0.1-0.6,0.3-1.2s0-0.5,0.3-1.2c0.2-0.3,0.6-0.6,0.8-1
					c0.2-0.3,0.2-0.8,0.4-1.2c0.2-0.4,0.3-0.7,0.5-1.1s0.4-0.7,0.5-1.1c0.2-0.4,0.3-0.8,0.5-1.2c0.2-0.4,0.3-0.8,0.4-1.2
					c0.2-0.4,0.3-0.8,0.4-1.2c0.2-0.4,0.2-0.8,0.4-1.2c0.2-0.4,0.5-0.7,0.6-1.1c0.2-0.4,0.4-0.7,0.6-1.1c0.1-0.4,0-0.9,0.1-1.3
					s0.6-0.7,0.8-1.1c0.1-0.4,0.1-0.8,0.2-1.2c0.1-0.4-0.1-0.9,0-1.3s0.3-0.8,0.4-1.2c0.1-0.4,0.2-0.8,0.2-1.2
					c0-0.4,0.2-0.8,0.2-1.2c0-0.4,0.1-0.8,0.1-1.2c0-0.4-0.4-0.8-0.4-1.2c0-0.4,0.1-0.8,0.1-1.2c0-0.4,0-0.8-0.1-1.2
					c-0.1-0.4-0.3-0.8-0.4-1.2c-0.1-0.4-0.1-0.8-0.3-1.2c-0.1-0.4-0.4-0.7-0.5-1.1c-0.2-0.4-0.3-0.7-0.5-1.1s-0.3-0.8-0.5-1.1
					c-0.1-0.6-0.1-0.4-0.3-1.1c-0.1-0.3,0.1-0.8-0.1-1.2c-0.1-0.3-0.5-0.6-0.7-1c-0.2-0.3-0.4-0.7-0.6-1c-0.2-0.3-0.3-0.7-0.6-1.1
					c-0.2-0.3-0.8-0.4-1-0.7c-0.3-0.3-0.3-0.8-0.6-1.1s-0.5-0.6-0.9-0.8c-0.3-0.3-0.8-0.3-1.1-0.6s-0.5-0.6-0.9-0.9
					c-0.3-0.3-0.6-0.6-0.9-0.8c-0.3-0.3-0.6-0.6-0.9-0.9c-0.3-0.2-0.8-0.3-1.2-0.5c-0.3-0.2-0.7-0.4-1.1-0.6c-0.3-0.2-0.5-0.8-0.8-1
					s-0.8-0.3-1.2-0.5c-0.3-0.2-0.5-0.7-0.9-0.9c-0.3-0.2-0.9-0.2-1.2-0.5c-0.3-0.2-0.7-0.5-1-0.7c-0.4-0.2-0.6-0.6-1-0.8
					s-0.7-0.4-1.1-0.6c-0.4-0.2-0.8-0.3-1.2-0.5s-0.6-0.6-1-0.8s-0.7-0.5-1-0.7c-0.4-0.2-0.9-0.1-1.3-0.3c-0.4-0.2-0.7-0.4-1.1-0.6
					c-0.4-0.2-0.6-0.7-1-0.8c-0.4-0.2-0.8-0.3-1.2-0.5s-0.9-0.2-1.2-0.3c-0.4-0.2-0.8-0.3-1.2-0.4c-0.4-0.1-0.8,0-1.2-0.1
					s-0.8-0.3-1.2-0.3c-0.4-0.1-0.8,0-1.2,0c-0.4-0.1-0.8-0.5-1.2-0.5s-0.9,0.3-1.2,0.3c-0.5,0-0.9,0-1.2,0c-0.8,0-0.6,0-1.2,0
					c-0.6,0-0.5-0.4-1.2-0.4c-0.4,0-0.8-0.1-1.3-0.1c-0.4,0-0.8-0.1-1.3-0.1c-0.4,0-0.8,0.3-1.3,0.3c-0.4,0-0.9-0.3-1.3-0.2
					c-0.4,0-0.9,0.2-1.3,0.3c-0.4,0-0.8,0.3-1.2,0.4c-0.4,0.1-0.9,0.1-1.3,0.3c-0.6,0-0.5-0.3-1.2-0.4c-0.4,0-0.8,0.3-1.3,0.3
					c-0.4,0-0.8,0-1.2,0.1c-0.4,0.1-0.9-0.2-1.3-0.1c-0.4,0.1-0.7,0.7-1,0.9c-0.6,0.1-0.5-0.4-1.2-0.5c-0.3,0-0.8,0-1.2,0
					c-0.4,0-0.8,0.1-1.2,0.2c-0.4,0-0.7,0.3-1.2,0.4c-0.4,0.1-0.8,0-1.2,0.1c-0.4,0.1-0.8,0.2-1.2,0.3c-0.4,0.1-0.8,0.1-1.2,0.3
					c-0.4,0.2-0.6,0.5-1,0.7c-0.3,0.2-0.8,0.3-1.1,0.5c-0.3,0.2-0.6,0.6-0.9,0.9c-0.3,0.3-0.7,0.5-1,0.8s-0.5,0.6-0.8,1
					c-0.2,0.3-0.3,0.8-0.5,1.1c-0.2,0.4-0.4,0.7-0.6,1.1c-0.2,0.4-0.6,0.7-0.7,1c-0.2,0.4-0.2,0.8-0.4,1.2c-0.2,0.4-0.2,0.8-0.4,1.2
					c-0.2,0.4-0.3,0.8-0.4,1.1c-0.2,0.7-0.2,0.6-0.3,1.2c-0.2,0.6-0.2,0.4-0.5,1.1c-0.1,0.3-0.4,0.7-0.6,1.1
					c-0.1,0.4,0.1,0.9-0.1,1.3c-0.1,0.4-0.3,0.7-0.5,1.1c-0.1,0.4-0.3,0.7-0.5,1.1s-0.4,0.7-0.5,1.1c-0.2,0.4-0.4,0.7-0.6,1.1
					s-0.3,0.8-0.5,1.2c-0.2,0.4-0.2,0.8-0.4,1.2c-0.2,0.4-0.3,0.8-0.4,1.2c-0.2,0.4-0.4,0.8-0.5,1.1c-0.2,0.4-0.3,0.8-0.5,1.1
					c-0.2,0.4-0.1,0.9-0.2,1.2c-0.2,0.4-0.4,0.8-0.5,1.1c-0.2,0.4-0.5,0.8-0.6,1.1c-0.1,0.4,0.1,0.9-0.1,1.4
					c-0.1,0.4-0.6,0.8-0.7,1.2c-0.1,0.4,0,0.9,0,1.3c-0.1,0.4-0.1,0.9-0.2,1.3c-0.1,0.5-0.2,0.9-0.3,1.3c-0.1,0.5-0.2,0.9-0.2,1.3
					c-0.1,0.8,0.3,0.7,0.1,1.3c-0.2,0.6-0.3,0.4-0.6,1.1c-0.2,0.3-0.3,0.7-0.5,1.1c-0.2,0.3-0.6,0.6-0.8,1c-0.2,0.3-0.2,0.8-0.5,1.1
					c-0.2,0.4-0.6,0.6-0.8,0.9c-0.2,0.4-0.2,0.8-0.4,1.2c-0.2,0.4-0.4,0.7-0.6,1.1s-0.3,0.8-0.4,1.2c-0.2,0.4-0.6,0.7-0.7,1
					s-0.1,0.7-0.3,1.2c-0.1,0.3-0.2,0.7-0.4,1.2c-0.1,0.4-0.3,0.7-0.4,1.2c-0.1,0.4-0.3,0.7-0.5,1.2c-0.1,0.4-0.1,0.8-0.3,1.2
					c-0.1,0.4-0.1,0.8-0.2,1.2c-0.1,0.4-0.5,0.7-0.6,1.1s-0.2,0.8-0.4,1.2c-0.1,0.4-0.2,0.8-0.3,1.2c-0.1,0.4-0.2,0.8-0.3,1.2
					c-0.1,0.4-0.3,0.8-0.4,1.2c-0.1,0.4-0.2,0.8-0.3,1.2c-0.1,0.4,0.1,0.9,0,1.3s-0.5,0.7-0.6,1.1s-0.2,0.8-0.3,1.2
					c-0.1,0.4,0,0.9-0.1,1.3s-0.5,0.8-0.6,1.1c-0.1,0.4-0.1,0.9-0.2,1.2c-0.1,0.5-0.1,0.9-0.2,1.2c-0.2,0.8-0.3,0.6-0.5,1.1
					c-0.2,0.6-0.1,0.5-0.4,1.2c-0.2,0.3-0.6,0.6-0.8,1c-0.2,0.4-0.1,0.9-0.3,1.3c-0.2,0.4-0.3,0.8-0.5,1.2c-0.2,0.4-0.6,0.7-0.8,1
					c-0.2,0.4-0.4,0.8-0.6,1.1c-0.2,0.4-0.1,0.9-0.3,1.3c-0.2,0.4-0.4,0.8-0.6,1.1c-0.2,0.4-0.6,0.7-0.8,1.1
					c-0.2,0.4-0.4,0.8-0.5,1.2c-0.2,0.6-0.2,1.1-0.3,1.3c0,0.2,0.2,0.6,0.6,1.1c0.2,0.3,0.5,0.7,0.8,1s0.7,0.5,1,0.9
					c0.3,0.3,0.4,0.8,0.7,1.1c0.3,0.3,0.8,0.4,1.1,0.7c0.3,0.3,0.4,0.9,0.7,1.2c0.3,0.3,0.7,0.6,1,0.8c0.4,0.3,0.7,0.6,1,0.8
					c0.6,0.5,0.8,0.2,1,0.8s-0.2,0.4-0.3,1.2c-0.1,0.4,0.1,0.8,0,1.3c0,0.4-0.1,0.8-0.1,1.3c0,0.4-0.1,0.8-0.1,1.3
					c0,0.4,0.2,0.8,0.2,1.3c0,0.4-0.1,0.8,0,1.3c0,0.4,0.1,0.8,0.2,1.3c0,0.4,0.2,0.8,0.2,1.3c0.1,0.4,0.1,0.8,0.2,1.2
					s0.2,0.8,0.3,1.2c0.1,0.4,0,0.9,0.1,1.3c0.1,0.4,0.5,0.7,0.7,1.1c0.1,0.4,0.1,0.9,0.3,1.3c0.2,0.4,0.3,0.8,0.4,1.2
					c0.2,0.4,0.4,0.7,0.6,1.1c0.2,0.4,0.3,0.8,0.5,1.2s0.6,0.6,0.8,1c0.2,0.4,0.3,0.8,0.5,1.1c0.2,0.4,0.3,0.8,0.5,1.1
					c0.2,0.4,0.5,0.7,0.7,1.1c0.2,0.4,0.3,0.8,0.5,1.2s0.6,0.7,0.8,1c0.2,0.4,0.2,0.9,0.4,1.2c0.2,0.4,0.6,0.7,0.8,1
					c0.2,0.4,0.4,0.7,0.6,1.1c0.2,0.4,0.4,0.8,0.6,1.1c0.2,0.4,0.3,0.8,0.6,1.1c0.2,0.4,0.6,0.7,0.8,1
					C88.1,173.9,88.4,174.2,88.7,174.7z"/>
			</g>
			<g id="_x3C_Group_guitar_x3E_">
				<g>
					<path class="st3" d="M154,146c-0.6-0.3-0.2-0.5-0.6-1.2c-0.2-0.3-0.2-0.8-0.5-1.2c-0.2-0.3-0.6-0.6-0.8-0.9
						c-0.2-0.3-0.4-0.7-0.6-1.1c-0.2-0.3-0.3-0.8-0.6-1.1c-0.2-0.3-0.6-0.6-0.9-0.9c-0.3-0.3-0.6-0.6-0.9-0.9
						c-0.3-0.3-0.4-0.8-0.7-1.1s-0.6-0.6-1-0.8c-0.3-0.3-0.8-0.3-1.2-0.5c-0.3-0.2-0.6-0.7-0.9-0.9c-0.4-0.2-0.9-0.1-1.2-0.3
						c-0.4-0.2-0.8-0.3-1.2-0.4c-0.4-0.1-0.8-0.4-1.2-0.4c-0.4-0.1-0.8-0.2-1.2-0.2s-0.8,0-1.3,0c-0.4,0-0.8,0.2-1.2,0.3
						s-0.9,0-1.3,0.1c-0.4,0.1-0.8,0.5-1.1,0.6c-0.4,0.1-0.9,0.1-1.3,0.3c-0.4,0.2-0.7,0.6-1,0.8c-0.4,0.2-0.9,0.3-1.2,0.5
						c-0.3,0.3-0.5,0.8-0.8,1c-0.3,0.3-0.8,0.4-1.1,0.7s-0.5,0.7-0.8,1s-0.6,0.6-0.9,0.9c-0.3,0.3-0.9,0.3-1.2,0.6
						c-0.3,0.3-0.5,0.7-0.9,0.9s-0.7,0.5-1.1,0.6s-0.8-0.1-1.3-0.1c-0.4,0-0.8,0-1.2-0.1c-0.4-0.1-0.9,0.1-1.3,0s-0.8-0.3-1.2-0.4
						c-0.4-0.1-0.7-0.5-1.1-0.7c-0.4-0.1-0.9,0-1.3-0.2c-0.4-0.1-0.7-0.4-1.1-0.5s-0.8-0.2-1.2-0.4c-0.4-0.1-0.8-0.3-1.2-0.5
						c-0.4-0.1-0.8-0.3-1.2-0.4c-0.4-0.1-0.8-0.2-1.2-0.3c-0.4-0.1-0.7-0.5-1.1-0.7c-0.4-0.1-0.8-0.2-1.2-0.4
						c-0.4-0.1-0.9,0-1.3-0.1s-0.7-0.5-1.1-0.6s-0.9,0.1-1.3,0s-0.7-0.6-1.2-0.6c-0.4-0.1-0.8-0.1-1.2-0.2c-0.4-0.1-0.8-0.1-1.3-0.1
						c-0.4,0-0.8,0-1.3-0.1c-0.4,0-0.8,0.2-1.3,0.2c-0.4,0-0.8,0-1.3,0c-0.4,0-0.9-0.2-1.3-0.2s-0.8,0.2-1.2,0.3
						c-0.4,0.1-0.8,0.3-1.2,0.4c-0.4,0.1-0.9,0-1.3,0.1s-0.7,0.5-1.1,0.6s-0.9,0.1-1.2,0.3c-0.4,0.2-0.7,0.6-1.1,0.7
						c-0.4,0.2-0.8,0.3-1.2,0.5c-0.4,0.2-0.7,0.5-1,0.7c-0.4,0.2-0.8,0.3-1.2,0.5c-0.4,0.2-0.6,0.6-0.9,0.9
						c-0.3,0.3-0.8,0.4-1.1,0.6c-0.3,0.3-0.7,0.5-1,0.8s-0.5,0.7-0.7,1c-0.3,0.3-0.7,0.5-1,0.8s-0.6,0.6-0.8,1
						c-0.2,0.3-0.4,0.7-0.7,1.1c-0.2,0.4-0.3,0.8-0.5,1.2s-0.5,0.7-0.7,1.1c-0.2,0.4-0.1,0.9-0.3,1.3c-0.2,0.4-0.7,0.6-0.8,1
						c-0.1,0.4,0,0.9-0.1,1.3c-0.1,0.4-0.2,0.8-0.3,1.2c-0.1,0.4-0.2,0.8-0.3,1.2c-0.1,0.4-0.3,0.8-0.3,1.2
						c-0.1,0.4-0.2,0.8-0.2,1.2s0,0.8-0.1,1.3c0,0.4,0,0.8,0,1.3c0,0.4-0.1,0.8,0,1.3c0,0.4,0,0.8,0,1.3c0,0.4-0.1,0.8,0,1.3
						c0,0.4,0.1,0.8,0.1,1.3c0,0.4,0.3,0.8,0.4,1.2s-0.2,0.9-0.1,1.3c0.1,0.4,0.3,0.8,0.3,1.2c0.1,0.4,0.1,0.8,0.2,1.3
						c0.1,0.4,0.5,0.8,0.6,1.2s0,0.9,0.1,1.3c0.1,0.4,0.2,0.8,0.3,1.2c0.1,0.4,0.4,0.8,0.5,1.2s0,0.9,0.2,1.3
						c0.1,0.4,0.4,0.7,0.6,1.1c0.2,0.4,0.5,0.7,0.6,1.1c0.2,0.4,0.4,0.8,0.6,1.1c0.2,0.4,0.5,0.7,0.7,1.1c0.2,0.4,0.3,0.8,0.5,1.2
						s0.4,0.7,0.7,1.1c0.2,0.4,0.2,0.9,0.4,1.2c0.2,0.4,0.6,0.6,0.9,0.9c0.3,0.3,0.6,0.6,0.9,0.9c0.3,0.3,0.3,0.8,0.6,1.1
						c0.3,0.3,0.6,0.6,0.9,0.9c0.3,0.3,0.5,0.7,0.8,1s0.7,0.4,1.1,0.7c0.3,0.3,0.5,0.7,0.8,1s0.7,0.5,1,0.7c0.3,0.3,0.7,0.5,1,0.8
						c0.3,0.2,0.6,0.6,1,0.8s0.9,0.2,1.2,0.4c0.4,0.2,0.6,0.6,1,0.8s0.8,0.2,1.2,0.4c0.4,0.2,0.8,0.3,1.2,0.4
						c0.4,0.2,0.9,0.1,1.3,0.2c0.4,0.1,0.8,0.4,1.2,0.5c0.4,0.1,0.7,0.5,1.2,0.6c0.4,0.1,0.9,0,1.3,0.1s0.8,0.3,1.2,0.4
						c0.4,0.1,0.8,0.1,1.3,0.2c0.4,0,0.8,0.1,1.3,0.1c0.4,0,0.8-0.3,1.3-0.3c0.4,0,0.8-0.1,1.3-0.1c0.4,0,0.9,0.3,1.3,0.2
						c0.4,0,0.8-0.4,1.2-0.5c0.4-0.1,0.8-0.1,1.2-0.2c0.4-0.1,0.9,0.1,1.3,0s0.8-0.3,1.2-0.5c0.4-0.1,0.8-0.3,1.2-0.5
						c0.4-0.2,0.8-0.3,1.2-0.5c0.4-0.2,0.6-0.6,1-0.8s0.8-0.2,1.2-0.4c0.4-0.2,0.7-0.5,1-0.8c0.3-0.2,0.7-0.5,1-0.7
						c0.3-0.3,0.7-0.5,1-0.7c0.3-0.3,0.5-0.7,0.8-1s0.4-0.7,0.7-1c0.3-0.3,0.6-0.5,0.9-0.8s0.7-0.5,0.9-0.8c0.3-0.3,0.6-0.6,0.8-0.9
						c0.3-0.3,0.5-0.7,0.7-1s0.4-0.8,0.6-1.1c0.2-0.4,0.6-0.6,0.8-1s0.3-0.8,0.6-1.1c0.2-0.4,0.4-0.8,0.6-1.1
						c0.2-0.4,0.5-0.7,0.7-1.1c0.2-0.4,0.5-0.7,0.7-1c0.2-0.4,0.5-0.7,0.7-1c0.3-0.4,0.4-0.8,0.6-1.1c0.3-0.4,0.9-0.3,1.2-0.5
						c0.4-0.2,0.7-0.5,1.2-0.6c0.4-0.1,0.9-0.2,1.3-0.2c0.4,0,0.8,0.3,1.3,0.4c0.4,0,0.9-0.1,1.3-0.1c0.4,0.1,0.9,0.1,1.3,0.2
						c0.4,0.1,0.8,0.3,1.2,0.4c0.4,0.1,0.8,0.4,1.2,0.5s0.9,0,1.3,0.1c0.4,0.1,0.8,0.2,1.3,0.2c0.4,0,0.9-0.1,1.3-0.1
						c0.4,0,0.9,0,1.3,0c0.4,0,0.9,0.1,1.3,0c0.4-0.1,0.9,0,1.3-0.2c0.4-0.1,0.8-0.3,1.2-0.5s0.6-0.7,0.9-1c0.3-0.2,0.9-0.2,1.3-0.5
						c0.3-0.3,0.5-0.7,0.8-1c0.4-0.4,0.7-0.7,0.9-1c0.2-0.5,0-1-0.1-1.3c-0.1-0.4-0.3-0.7-0.8-1c-0.3-0.2-0.6-0.6-1.1-0.8
						c-0.4-0.2-0.8-0.3-1.3-0.5c-0.4-0.2-0.8-0.4-1.2-0.6c-0.4-0.2-0.9-0.1-1.2-0.3s-0.7-0.5-1-0.8s-0.5-0.7-0.6-1.1
						c-0.2-0.4,0-0.9-0.1-1.2c-0.1-0.4-0.3-0.8-0.4-1.2c0-0.4,0-0.8,0-1.2c0.1-0.4,0-0.9,0.2-1.2c0.2-0.4,0.4-0.8,0.7-1.1
						s0.8-0.2,1.2-0.3c0.3-0.2,0.7-0.3,1.1-0.4c0.4-0.1,0.7-0.4,1.1-0.5c0.4-0.1,0.8-0.2,1.2-0.3s0.9,0.2,1.2,0.1
						c0.5-0.1,0.7-0.5,1-0.6c0.3-0.2,0.7-0.3,1.1-0.6c0.3-0.2,0.8-0.2,1.2-0.5c0.3-0.2,0.6-0.6,1-0.8c0.3-0.2,0.6-0.5,1-0.7
						s0.7-0.4,1.1-0.6c0.4-0.1,0.8-0.1,1.3-0.2c0.2-0.1,0.6-0.2,1.2-0.4c0.3-0.1,0.8-0.2,1.2-0.3s0.8-0.3,1.2-0.4
						c0.4-0.1,0.8,0,1.3-0.2c0.4-0.1,0.7-0.4,1.1-0.6c0.4-0.1,0.8,0,1.3-0.1c0.4-0.1,0.7-0.4,1.2-0.5c0.4-0.1,0.8-0.2,1.2-0.3
						s0.8-0.3,1.2-0.4c0.4-0.1,0.8-0.2,1.2-0.3s0.8-0.1,1.2-0.2c0.4-0.1,0.8-0.2,1.2-0.4c0.4-0.1,0.7-0.4,1.2-0.5
						c0.4-0.1,0.9,0,1.3-0.1c0.4-0.1,0.8-0.4,1.2-0.5s0.8-0.3,1.2-0.4c0.4-0.1,0.8-0.1,1.2-0.3c0.4-0.1,0.8-0.2,1.2-0.3
						s0.8-0.1,1.2-0.2c0.4-0.1,0.8-0.3,1.2-0.4c0.4-0.1,0.8-0.2,1.2-0.3s0.8-0.3,1.2-0.4c0.4-0.1,0.8-0.2,1.2-0.4
						c0.4-0.1,0.9,0,1.3-0.1c0.4-0.1,0.8-0.3,1.2-0.4c0.4-0.1,0.8-0.4,1.2-0.5s0.8-0.1,1.2-0.2c0.4-0.1,0.8-0.1,1.2-0.3
						c0.4-0.1,0.8-0.3,1.2-0.4c0.4-0.1,0.7-0.5,1.1-0.6c0.4-0.1,0.8-0.1,1.2-0.2c0.4-0.1,0.7-0.4,1.1-0.6c0.4-0.1,0.8-0.1,1.2-0.2
						c0.4-0.1,0.9-0.1,1.3-0.2c0.4-0.1,0.7-0.5,1.1-0.6c0.4-0.1,0.9-0.1,1.3-0.2c0.4-0.1,0.8-0.2,1.2-0.3s0.8-0.1,1.2-0.3
						c0.4-0.1,0.8-0.3,1.2-0.5c0.4-0.1,0.8-0.3,1.2-0.4c0.4-0.1,0.8-0.2,1.2-0.3s0.9-0.1,1.2-0.2c0.4-0.1,0.8-0.4,1.1-0.5
						c0.4-0.1,0.8-0.3,1.2-0.4c0.4-0.1,0.9-0.1,1.3-0.2c0.5-0.1,0.8-0.4,1.2-0.5c0.8-0.2,0.6,0,1.2-0.2c0.6-0.2,0.5-0.2,1.3-0.1
						c0.4,0.1,0.7,0.4,1.1,0.6c0.3,0.2,0.7,0.3,1,0.6s0.7,0.4,0.9,0.6c0.4,0.3,0.5,0.8,0.8,0.8c0.2,0,0.6-0.4,1.2-0.5
						c0.3-0.1,0.8,0.1,1.2,0s0.8-0.2,1.2-0.3s0.8-0.3,1.2-0.3c0.4-0.1,0.8-0.1,1.2-0.2c0.4-0.1,0.8,0,1.2-0.1s0.8,0,1.2-0.1
						c0.4,0,0.8-0.3,1.2-0.3s0.8,0.2,1.2,0.2s0.8-0.3,1.2-0.3s0.8-0.1,1.2-0.1s0.8,0.4,1.2,0.4s0.8-0.1,1.2-0.1c0.5,0,0.9,0,1.2-0.1
						c0.5-0.1,0.9-0.2,1.2-0.4c0.4-0.3,0.5-0.7,0.5-1s-0.5-0.6-0.6-1s0.1-0.8,0.2-1.2c0.1-0.4-0.2-0.9-0.2-1.4s0.3-1,0.2-1.5
						s-0.7-0.8-1-1.1c-0.2-0.5,0.2-0.5,0.1-1.1c-0.1-0.3-0.4-0.6-0.6-0.9c-0.2-0.3-0.3-0.5-0.6-0.8c-0.3-0.2-0.4-0.7-0.7-0.9
						c-0.2-0.3-0.6-0.6-0.7-0.9c-0.2-0.3-0.2-0.8-0.3-1.1c-0.1-0.4-0.2-0.8-0.4-1.1c-0.2-0.3-0.7-0.5-1.3-0.4
						c-0.4,0-0.7,0.5-1.2,0.6c-0.4,0.1-0.8,0.2-1.3,0.3c-0.4,0.1-0.8,0.2-1.3,0.4c-0.4,0.1-0.9,0.1-1.3,0.2c-0.4,0.1-0.9,0-1.3,0.1
						c-0.4,0.1-0.8,0.1-1.2,0.2s-0.7,0.5-1.1,0.6c-0.4,0.1-0.9-0.1-1.3-0.1c-0.4,0.1-0.8,0.2-1.2,0.3c-0.4,0.1-0.8,0.3-1.2,0.3
						c-0.4,0.1-0.8,0.1-1.2,0.2c-0.5,0.1-0.9-0.1-1.2,0c-0.6,0.1-1.1,0.2-1.2,0.3c-0.3,0.2-0.3,0.7-0.5,1.1
						c-0.2,0.3-0.5,0.5-0.8,0.8c-0.2,0.2-0.5,0.5-0.9,0.7c-0.3,0.2-0.6,0.4-1.1,0.5c-0.2,0-0.6,0.2-1.2,0.3
						c-0.3,0.1-0.7,0.3-1.2,0.4c-0.4,0.1-0.8-0.1-1.3,0c-0.4,0.1-0.8,0.2-1.2,0.3s-0.8,0.2-1.2,0.3s-0.7,0.4-1.2,0.5
						c-0.4,0.1-0.8,0.2-1.2,0.3s-0.8,0-1.3,0.1c-0.4,0.1-0.8,0.1-1.3,0.2c-0.4,0.1-0.8,0.4-1.2,0.5s-0.8,0.1-1.2,0.2
						c-0.4,0.1-0.9,0-1.3,0.1c-0.4,0.1-0.8,0.1-1.2,0.2c-0.4,0.1-0.8,0.3-1.2,0.4c-0.4,0.1-0.8,0.3-1.2,0.4
						c-0.4,0.1-0.8,0.2-1.2,0.3s-0.8,0.3-1.2,0.4c-0.4,0.1-0.9-0.1-1.3,0c-0.4,0.1-0.7,0.5-1.1,0.6c-0.4,0.1-0.9-0.1-1.3,0
						c-0.4,0.1-0.8,0.5-1.2,0.6s-0.8,0.1-1.3,0.2c-0.4,0.1-0.9,0-1.3,0.1c-0.4,0.1-0.8,0.2-1.2,0.3s-0.8,0.4-1.2,0.5s-0.9,0-1.3,0
						c-0.4,0.1-0.8,0.3-1.2,0.4c-0.4,0.1-0.8,0.3-1.2,0.4c-0.4,0.1-0.8,0.1-1.3,0.2c-0.4,0.1-0.8,0.2-1.2,0.3s-0.8,0.4-1.2,0.5
						s-0.9-0.2-1.3-0.1c-0.4,0.1-0.8,0.3-1.2,0.4c-0.4,0.1-0.8,0.4-1.2,0.5s-0.8,0.2-1.2,0.3s-0.9-0.1-1.3,0
						c-0.4,0.1-0.8,0.5-1.2,0.6s-0.9-0.1-1.3,0c-0.4,0.1-0.8,0.3-1.2,0.4c-0.4,0.1-0.8,0.4-1.2,0.5s-0.8,0.2-1.2,0.3
						s-0.9-0.2-1.3-0.1c-0.4,0.1-0.7,0.5-1.2,0.6c-0.4,0.1-0.9-0.1-1.3,0c-0.4,0.1-0.8,0.2-1.2,0.3s-0.8,0.4-1.2,0.5
						s-0.8,0.3-1.2,0.4c-0.4,0.1-0.9-0.1-1.3-0.1c-0.4,0.1-0.9,0.1-1.2,0.2c-0.5,0.1-0.8,0.5-1.2,0.6
						C154.5,145.8,154.5,146.3,154,146z"/>
				</g>
				<g>
					<path class="st1" d="M172.1,156.4c0.1,0,0.7-0.3,1.3-0.7c0.3-0.3,0.8-0.4,1.1-0.8c0.3-0.3,0.3-0.9,0.5-1.3
						c0.2-0.4,0.5-0.7,0.4-1.1c-0.1-0.3-0.6-0.5-0.8-0.9c-0.2-0.3-0.3-0.8-0.5-1c-0.3-0.3-0.5-0.6-0.8-0.8c-0.2-0.2-0.6-0.4-1-0.8
						c-0.3-0.3-0.7-0.5-1-0.8s-0.6-0.6-0.9-0.9c-0.4-0.3-0.7-0.5-1-0.7c-0.5-0.2-0.7-0.2-1.1,0c-0.4,0.2-0.6,0.4-0.6,0.9
						c0,0.4-0.2,0.9-0.1,1.3c0.2,0.7,0.9,0.7,0.6,1.2c-0.4,0.5-0.5-0.2-1.1-0.6c-0.3-0.2-0.6-0.6-0.9-0.8c-0.3-0.2-0.7-0.5-1-0.7
						c-0.4-0.3-0.8-0.5-1.1-0.6s-0.7-0.4-1.1-0.4c-0.4,0-0.7,0.4-1,0.6c-0.3,0.2-0.7,0.4-0.9,0.7c-0.4,1,0.6,0.8,0.4,1.8
						c-0.2,0.9-1,0.3-1.1,1.3c0,0.3,0.2,0.8,0.4,1.2c0.2,0.3,0.4,0.7,0.7,1c0.4,0.5,1.2,0.3,1.1,0.8c-0.2,0.6-0.6,0.2-1.4,0.4
						c-0.4,0.1-0.8,0.1-1.3,0.3c-0.4,0.2-0.8,0.2-1.3,0.5c-0.4,0.2-0.7,0.5-1.1,0.8c-0.4,0.2-0.8,0.4-1.2,0.7
						c-0.3,0.3-0.6,0.7-0.9,1c0,0.6,0.3,0.4,0.7,1c0.2,0.3,0.6,0.5,0.9,0.8c0.3,0.4,0.5,0.8,0.8,1c0.4,0.3,0.8,0.6,1.2,0.7
						c0.4,0.1,0.9,0.1,1.3,0.3c0.3,0.2,0.6,0.4,0.9,0.6c0.3,0.2,0.5,0.5,0.8,0.7c0.3,0.1,0.7,0.3,1.1,0.2c0.5-0.1,0.8-0.5,1.1-0.9
						c0.5-0.6,0.2-0.7,0.6-1.2c0.4-0.4,0.6,0,1.2-0.1c0.3-0.1,0.7-0.3,1.1-0.4c0.4-0.1,0.7-0.2,1-0.4c0.4-0.2,0.6-0.6,0.7-0.9
						c0.6-0.4,0.7,0,1.4-0.2c0.5-0.2,0.9-0.5,1.2-0.8c0.3-0.2,0.4-0.6,0.5-1C172.2,157,171.9,157,172.1,156.4z"/>
				</g>
				<g>
					<path class="st1" d="M170.1,142.3c0.5-0.3,0.1-0.7,0.3-1.3c0.1-0.4,0.4-0.7,0.5-1.1c0.1-0.4-0.2-0.9-0.4-1.2
						c-0.2-0.4-0.4-0.8-0.8-1c-0.4-0.2-0.9-0.5-1.3-0.5c-0.4,0-0.7,0.5-1,0.9c-0.3,0.3-0.7,0.5-0.9,0.9s-0.4,0.8-0.6,1.2
						c-0.2,0.4-0.2,0.9-0.4,1.2c-0.2,0.5-0.3,0.9-0.5,1.1c-0.2,0.3-0.4,0.5-0.7,0.7c-0.5,0.4-1.3,0.4-0.9,0.3
						c0.7-0.2,0.7-0.1,1.3-0.2c0.7-0.2,0.7-0.2,1.3-0.3c0.7-0.2,0.6-0.3,1.3-0.4c0.7-0.2,0.7,0.1,1.4,0
						C169.5,142.5,169.6,142.6,170.1,142.3z"/>
				</g>
				<g>
					<path class="st3" d="M237.6,138c0.4,0.3,0.2,0.4,0.4,0.9s-0.1,0.7,0.2,1.1c0.4,0.4,0.7-0.1,1.3,0.1c0.4,0.1,0.8,0.4,0.8,0.8
						c0.1,0.4-0.2,0.8-0.6,1.1c-0.3,0.2-0.8,0.2-1.3,0.2c-0.4,0-0.8-0.1-1.2-0.2c-0.7-0.2-0.7-0.3-0.5-0.6c0.2-0.5,0.9-0.4,0.8-1.1
						c-0.1-0.7-0.6-0.6-1-1.2c-0.4-0.6-0.8-0.5-0.7-1.2c0.1-0.5,0.5-0.1,0.9-0.2C237.1,137.7,237.2,137.7,237.6,138z"/>
				</g>
				<g>
					<path class="st3" d="M232.3,138.6c0.4,0.3,0.5,0.3,0.6,0.8c0.2,0.5-0.4,0.8,0,1.2s0.8-0.3,1.4-0.1c0.4,0.1,0.5,0.6,0.6,1
						s0,0.8-0.4,1.1c-0.3,0.2-0.8,0.3-1.3,0.3c-0.4,0-0.9,0.1-1.3-0.1c-0.7-0.2-0.8-0.7-0.7-1c0.2-0.5,1.1-0.3,1.1-1
						c-0.1-0.7-0.5-0.6-0.9-1.2c-0.4-0.6-1-0.5-0.8-1.2c0.1-0.5,0.5,0,1,0C231.9,138.4,231.9,138.3,232.3,138.6z"/>
				</g>
				<g>
					<path class="st3" d="M227.2,139.2c0.4,0.3,0,0.6,0.2,1.1s0.1,0.6,0.4,1c0.4,0.4,0.7-0.1,1.2,0.1c0.4,0.1,0.9,0.4,1,0.8
						c0.1,0.4-0.3,0.9-0.8,1.2c-0.3,0.2-0.8,0.1-1.3,0.1c-0.4,0-0.8,0.1-1.3-0.1c-0.7-0.2-1-0.5-0.8-0.8c0.2-0.5,1-0.3,1-0.9
						c-0.1-0.7-0.2-0.7-0.6-1.3c-0.4-0.6-0.9-0.4-0.8-1.1c0.1-0.5,0.3-0.1,0.8-0.2C226.7,139,226.8,138.9,227.2,139.2z"/>
				</g>
				<g>
					<path class="st3" d="M222.6,127.8c-0.5-0.2-0.1-0.4-0.2-0.9c-0.2-0.5,0-0.6-0.4-1s-0.7,0.1-1.2-0.1c-0.4-0.1-0.9-0.3-0.9-0.6
						c-0.1-0.3,0.4-0.6,0.8-0.9c0.3-0.2,0.6-0.4,1.1-0.4c0.4-0.1,0.8-0.2,1.2-0.1c0.7,0.1,0.6,0.5,0.5,0.8c-0.2,0.5-0.8,0.4-0.7,1
						c0.1,0.7,0.5,0.5,0.9,1s0.8,0.5,0.7,1.2C224.3,128.8,223.4,128.2,222.6,127.8z"/>
				</g>
				<g>
					<path class="st3" d="M227.3,127.4c-0.5-0.2-0.3-0.5-0.5-1s0-0.5-0.3-0.8c-0.4-0.4-0.4-0.1-0.9-0.3c-0.4-0.1-0.6-0.3-0.7-0.7
						c-0.1-0.3,0-0.8,0.5-1c0.3-0.2,0.7-0.3,1.2-0.4c0.4-0.1,0.8-0.1,1.2,0c0.7,0.1,0.5,0.5,0.4,0.8c-0.2,0.5-0.7,0.4-0.6,1
						c0.1,0.7,0.4,0.5,0.8,1.1c0.4,0.5,0.8,0.4,0.7,1.1C228.9,128.2,228.1,127.7,227.3,127.4z"/>
				</g>
				<g>
					<path class="st3" d="M232.1,126.4c-0.5-0.2-0.2-0.4-0.4-0.9s0-0.5-0.4-0.8c-0.4-0.4-0.4-0.1-1-0.3c-0.4-0.1-0.8-0.3-0.8-0.6
						c-0.1-0.3,0.1-0.9,0.5-1.2c0.3-0.2,0.8-0.2,1.2-0.3c0.4-0.1,0.8,0,1.2,0.1c0.7,0.1,0.6,0.4,0.5,0.7c-0.2,0.5-0.5,0.4-0.4,1
						c0.1,0.7,0.3,0.5,0.7,1s0.6,0.5,0.6,1.2C233.7,127.2,233,126.7,232.1,126.4z"/>
				</g>
				<animateTransform attributeName="transform" attributeType="XML" type="rotate" values="360 100 100;354 100 100;360 100 100" dur="3s" repeatCount="indefinite"/>
			</g>
			<g>
				<path class="st1" d="M131.2,156.3c-0.4-0.1-0.6-0.2-0.9-0.4c-0.3-0.2-0.5-0.5-0.7-0.8c-0.4-0.5-0.4-0.4-0.7-0.8
					c-0.3-0.5-0.6-0.3-0.9-0.9c-0.2-0.3-0.2-0.8-0.3-1.2c-0.1-0.4-0.3-0.9-0.2-1.2c0.1-0.4,0.2-0.7,0.3-1c0.1-0.4,0.2-0.7,0.1-1
					s-0.2-0.5-0.6-0.8c-0.2-0.2-0.4-0.6-0.9-0.9c-0.3-0.2-0.8-0.3-1.2-0.5c-0.4-0.2-0.7-0.4-1.1-0.7c-0.4-0.2-0.7-0.4-1.1-0.7
					c-0.4-0.2-0.8-0.4-1.2-0.6c-0.4-0.2-0.8-0.5-1.1-0.7c-0.6-0.4-1-0.8-1.1-0.9c-0.4,0-0.9,0.2-1.3,0.3c-0.4,0-0.8,0.1-1.3,0.2
					c-0.4,0.1-0.9-0.1-1.3,0c-0.4,0.2-0.7,0.5-1.1,0.8c-0.4,0.2-0.6,0.6-1,0.9c-0.3,0.3-0.8,0.4-1.1,0.7c-0.3,0.3-0.5,0.7-0.8,1
					s-0.8,0.5-1.1,0.8c-0.3,0.4-0.3,0.9-0.5,1.3c-0.2,0.4-0.5,0.7-0.7,1.1c-0.2,0.4-0.4,0.8-0.6,1.2s0,0.9-0.1,1.3
					c0.1,0-0.3-0.1-0.2,0c0.2,0.6,0.4,0.5,0.6,1.2c0.1,0.4,0.2,0.9,0.3,1.3c0.2,0.4,0.4,0.9,0.6,1.2c0.2,0.4,0.4,0.8,0.7,1.1
					c0.3,0.3,0.7,0.4,1,0.8c0.2,0.3,0.3,0.7,0.5,1.2c0.1,0.3,0.3,0.8,0.5,1.3c0.2,0.4,0.4,0.8,0.6,1.2s0.3,0.8,0.5,1.3
					c0.2,0.4,0.4,0.8,0.6,1.2s0.2,1,0.3,1.3c0.2,0.5,0.6,0.9,0.7,1.2c0.2,0.4,0.4,0.8,0.6,1.1c0.2,0.4,0.4,0.7,0.8,1
					c0.3,0.2,0.7,0.2,1.2,0.4c0.4,0.2,0.7,0.7,1.2,0.8s1,0,1.4-0.1c0.5,0,0.9-0.2,1-0.7c0.1-0.4-0.1-0.7-0.4-1.2
					c-0.3-0.4-0.5-0.8-0.8-1c-0.5-0.5-0.7-0.2-1.2-0.7c-0.4-0.5-0.2-0.5-0.4-1.2c-0.1-0.3,0.1-0.8,0-1.2s-0.4-0.7-0.5-1.1
					c-0.1-0.5-0.3-0.8-0.4-1c0.6,0.4,0.5,0.2,1,0.8c0.2,0.3,0.3,0.8,0.6,1.2c0.3,0.3,0.7,0.6,1,0.9c0.3,0.4,0.4,0.8,0.7,1.1
					c0.4,0.4,0.9,0.6,1.1,0.8c0.3,0.2,0.5,0.5,0.9,0.8c0.3,0.2,0.6,0.5,1,0.7s0.8,0.4,1.2,0.4c0.5,0.1,0.9-0.2,1.2-0.4
					c0.4-0.2,0.6-0.4,0.7-0.8c0.1-0.6-0.3-0.6,0-1.1c0.3-0.6,0.4-0.3,1-0.7c0.3-0.2,0.7-0.3,1-0.7c0.4-0.5,0.3-0.9,0.2-1.3
					c-0.3-0.7-0.3-0.6-0.7-1.3c-0.2-0.4-0.4-0.5-0.3-0.8c0.2-0.5,0.5,0,1.1-0.2c0.3-0.1,0.7-0.1,1-0.3c0.4-0.3,0.6-0.6,0.7-0.9
					c0.3-0.6-0.3-0.8,0.1-1.2c0.6-0.5,0.8,0,1.2-0.7c0.3-0.4,0.3-0.9-0.1-1.3C132.3,156.9,131.8,156.5,131.2,156.3z"/>
			</g>
			<g>
				<path class="st2" d="M119.7,143.5L119.7,143.5c0.8,0,0.7,0.1,1.7-0.3c0.2-0.1,0.2-0.7-0.3-1.3c-0.2-0.3-0.7-0.5-1-0.9
					c-0.3-0.3-0.5-0.8-0.8-1.1s-0.8-0.5-1.1-0.9c-0.3-0.4-0.5-0.8-0.8-1.1c-0.6-0.6-0.4-0.6-1-0.9c-0.5-0.4-0.4-0.1-1.2-0.4
					c-0.3-0.1-0.7-0.2-1.2-0.4c-0.4-0.1-0.7-0.5-1.1-0.6s-0.8-0.2-1.2-0.3c-0.4-0.1-0.9,0.1-1.3,0s-0.8-0.4-1.2-0.5
					c-0.4-0.1-0.9,0-1.3-0.1s-0.8-0.5-1.2-0.5c-0.4-0.1-0.9,0-1.3-0.1s-0.8-0.2-1.2-0.3c-0.4-0.1-0.9,0-1.3,0s-0.9,0-1.3,0
					s-0.9,0.1-1.3,0.1s-0.8,0-1.3,0.1c-0.4,0-0.9-0.1-1.3,0s-0.9,0-1.3,0.1s-0.7,0.5-1.1,0.7s-0.8,0.3-1.1,0.6
					c-0.3,0.3-0.6,0.5-0.9,0.8c0,0.7,0.4,0.3,0.9,1c0.2,0.3,0.3,0.8,0.5,1.2s0.5,0.7,0.8,1.1c0.3,0.4,0.6,0.7,0.8,1.1
					c0.3,0.4,0.5,0.8,0.7,1.1s0.8,0.4,1.2,0.7c0.3,0.2,0.6,0.8,1,1s0.8,0.3,1.2,0.5c0.4,0.2,0.9,0.1,1.3,0.2
					c0.7,0.2,0.7,0.1,1.2,0.5c0.6,0.4,0.2,0.5,0.7,1.2c0.2,0.3,0.6,0.7,0.9,1.1c0.3,0.4,0.5,0.8,0.8,1.2s0.6,0.8,0.8,1.1
					c0.3,0.4,0.2,0.8,0.4,1.2c0.2,0.4,0.3,0.7,0.4,1.1c0.1,0.4,0.3,0.8,0.4,1.1c0.2,0.8,1,0.8,1.3,0.7c0.1-0.4,0.2-0.9,0.3-1.3
					c0.2-0.4,0.3-0.8,0.5-1.2s0.4-0.8,0.6-1.2s0.4-0.8,0.6-1.1c0.3-0.4,0.5-0.7,0.8-1s0.8-0.5,1.1-0.8c0.3-0.3,0.7-0.5,1-0.8
					s0.5-0.8,0.9-1s0.9-0.1,1.3-0.2c0.4-0.2,0.8-0.3,1.2-0.4c0.4-0.1,0.8-0.5,1.2-0.6C118.8,143.3,119.3,143.5,119.7,143.5z"/>
			</g>
		</g>
		<g>
			<path class="st3" d="M142.8,56.6c0-0.1,0.1-0.2,0.1-0.2C142.8,56.4,142.8,56.6,142.8,56.6z"/>
		</g>
		<g>
			<path class="st2" d="M137.3,17.9c0.1-0.4,0.5-0.5,0.7-0.9c0.2-0.3,0.4-0.7,0.7-1.1c0.3-0.3,0.4-0.8,0.7-1.1s0.7-0.6,1-0.9
				c0.3-0.3,0.7-0.5,1-0.8s0.6-0.7,0.9-0.9c0.4-0.3,0.7-0.6,1-0.9c0.4-0.3,0.8-0.4,1.2-0.6c0.4-0.2,0.8-0.6,1.1-0.7
				c0.3-0.1,0.7,0,1.3-0.1c0.4,0,0.8-0.2,1.2-0.3c0.4,0,0.8,0.3,1.3,0.3c0.4,0,0.8-0.4,1.2-0.4s0.8,0.3,1.3,0.3
				c0.4,0,0.8-0.3,1.3-0.3c0.4,0,0.8,0.3,1.3,0.4c0.4,0,0.9-0.3,1.3-0.3c0.4,0,0.8,0.3,1.2,0.3s0.9-0.2,1.3-0.2
				c0.4,0,0.9,0.2,1.2,0.2c0.5,0.1,0.9,0.2,1.2,0.3c0.6,0.1,1.1,0.1,1.3,0.3c0.4,0.4,0.1,0.8-0.3,1.1c-0.3,0.2-0.7,0.2-1.1,0.4
				c-0.6,0.2-0.9,0-1,0.6c0,0.7,0.4,0.2,1.2,0.3c0.4,0.1,0.9-0.1,1.4,0c0.4,0.1,0.8,0.3,1.3,0.4c0.4,0.1,0.8,0.4,1.3,0.6
				c0.4,0.2,0.8,0.5,1.2,0.7c0.5,0.2,1,0.2,1.2,0.4c0.4,0.4,0.3,0.9,0.2,1.2c0,0.6-0.3,0.5-0.5,1.1c-0.1,0.6,0.5,0.1,1.1,0.5
				c0.3,0.2,0.4,0.7,0.8,1c0.3,0.2,0.7,0.4,1,0.6c0.3,0.3,0.8,0.3,1.1,0.6c0.3,0.3,0.3,0.8,0.6,1.1c0.3,0.3,0.5,0.6,0.6,1
				c0.2,0.4,0.3,0.7,0.2,1c-0.1,0.4-0.3,0.6-0.6,0.7c-0.5,0.2-0.7-0.2-1.1,0.2c-0.4,0.4,0.2,0.5,0.4,1.2c0.1,0.3,0.4,0.7,0.5,1.1
				s0.2,0.8,0.3,1.2c0.1,0.4,0.4,0.8,0.5,1.1c0.1,0.5,0.4,1,0.3,1.3c-0.1,0.4-0.8,0.3-1.3,0.2c-0.6-0.1-0.6-0.4-1.3-0.1
				c-0.6,0.2,0.2,0.3,0.5,1c0.1,0.3,0.2,0.8,0.3,1.2c0.1,0.4,0.2,0.8,0.2,1.2c0.1,0.4,0.5,0.7,0.5,1.2c0,0.4,0,0.8-0.1,1.2
				c0,0.4,0,0.9-0.1,1.3c-0.1,0.4-0.5,0.8-0.6,1.2s0.1,0.9-0.1,1.3c-0.1,0.4-0.4,0.8-0.5,1.2c-0.2,0.5-0.4,0.9-0.6,1.2
				c-0.3,0.5-0.7,0.8-1,0.7c-0.3-0.2-0.7-0.6-0.8-1.1c-0.1-0.4,0.2-1,0.1-1.4c-0.1-0.9-0.5-1.5-0.5-0.9c0,0.4,0,0.8-0.1,1.2
				s-0.1,0.7-0.5,0.9c-0.3,0.1-0.6,0.5-1.1,0.4c-0.6-0.1-1.1-0.3-1.3-0.5c-0.6-0.5,0.4-1.1-0.2-1.3c-0.6-0.2-0.6,0.2-1.3,0.3
				c-0.6,0.1-0.7,0-1.3,0.1s-0.6,0.4-1.2,0.6c-0.6,0.1-0.7-0.2-1.4-0.1c-0.6,0.1-0.6,0.2-1.3,0.3c-0.6,0.1-0.6,0.4-1.2,0.5
				c-0.6,0.1-0.7-0.1-1.3,0.1c-0.6,0.1-0.6,0.3-1.2,0.5c-0.6,0.1-0.6,0.2-1.3,0.3c-0.6,0.1-0.7,0-1.3,0.2c-0.6,0.1-0.6,0.1-1.3,0.2
				c-0.6,0.1-0.7-0.1-1.3,0s-0.6,0.3-1.2,0.4c-0.6,0.1-0.7-0.2-1.3-0.1c-0.6,0.1-0.6,0.5-1.2,0.6c-0.6,0.1-0.7-0.2-1.3-0.2
				c-0.6,0.1-0.6,0-1.3,0.1c-0.6,0.1-0.6,0.3-1.2,0.4s-0.7-0.1-1.3,0c-0.7,0.1-0.5,0.2-1.3,0.3c-0.4,0.1-0.9,0.1-1.3,0.1
				c-0.4,0-0.9-0.1-1.3,0c-0.5,0-0.9,0.4-1.3,0.3c-0.5-0.1-1-0.3-1.2-0.6c-0.2-0.2-0.1-0.6-0.3-1.2c-0.1-0.3-0.2-0.7-0.2-1.2
				c-0.1-0.4-0.5-0.7-0.5-1.2c0-0.4,0.2-0.8,0.1-1.2c0-0.4,0-0.8,0-1.2s-0.2-0.8-0.3-1.2c0-0.4-0.1-0.8-0.1-1.2s-0.1-0.8-0.1-1.2
				s0-0.8,0-1.2s0-0.8,0-1.2c0-0.4-0.1-0.8-0.1-1.2c0-0.4,0.2-0.8,0.2-1.2c0-0.4-0.1-0.9-0.1-1.2c0-0.5,0.2-0.9,0.2-1.2
				c0-0.4-0.1-0.9,0-1.3s0.3-0.8,0.5-1.2c0.2-0.4,0.4-0.8,0.6-1.2c0.2-0.4,0.3-0.9,0.5-1.2c0.4-0.7,1-0.6,0.7-1.1
				c-0.2-0.4-0.5-0.2-1-0.3c-0.4-0.1-0.6-0.1-0.6-0.4s0.2-0.5,0.5-0.6c0.5-0.2,0.6,0.1,0.9-0.3c0.4-0.6-0.1-0.6-0.1-1.3
				c0-0.4,0.2-0.9,0.3-1.4c0.1-0.6,0.2-1,0.6-1.2c0.3-0.2,0.8,0,1.1,0.3c0.2,0.3,0.4,0.7,0.5,1.1C137.1,17.5,136.8,17.6,137.3,17.9z
				"/>
		</g>
		<g>
			<path class="st1" d="M125.6,49.3c-0.1,0.7,0,0.5,0,1.4c0,0.4,0,0.8,0.1,1.4c0.1,0.4,0.5,0.7,0.6,1.2c0.2,0.4,0,1,0.2,1.4
				s0.5,0.7,0.8,1.1c0.2,0.3,0.4,0.7,0.7,1c0.2,0.3,0.5,0.6,0.8,0.9c0.3,0.3,0.6,0.5,0.9,0.8c0.3,0.3,0.7,0.5,1,0.8s0.5,0.7,0.8,1
				s0.7,0.5,1,0.8s0.6,0.6,0.9,0.9c0.3,0.3,0.5,0.6,0.8,0.9c0.3,0.3,0.7,0.4,1,0.7s0.7,0.5,1,0.7c0.3,0.3,0.4,0.8,0.7,1
				c0.3,0.3,0.8,0.4,1.1,0.6c0.3,0.3,0.5,0.7,0.8,1c0.4,0.3,0.7,0.5,1,0.7c0.6,0.5,0.4,1,1,1c0.6-0.1,0.2-0.6,0.7-1.1
				c0.2-0.3,0.5-0.6,0.8-0.9c0.2-0.3,0.6-0.5,0.9-0.9c0.2-0.3,0.5-0.6,0.7-1c0.2-0.3,0.3-0.7,0.6-1.1c0.2-0.3,0.5-0.6,0.7-1
				s0.3-0.8,0.5-1.1c0.3,0.1,0.7,0.1,1.1,0.1c0.3,0,0.7,0.1,1.1-0.1c0.3-0.1,0.6-0.3,1-0.5s0.9-0.3,1.2-0.6c0.4-0.3,0.4-0.9,0.6-1.2
				c0.4-0.6,0.4-0.5,0.7-1.1s0.2-0.6,0.7-1.2c0.2-0.3,0.5-0.7,0.8-1.1c0.3-0.4,0.9-0.5,1.2-0.9s0.5-0.9,0.7-1.2
				c0.2-0.2,0.4-0.6,0.7-0.9c0.2-0.3,0.6-0.5,0.8-0.8s0.6-0.5,0.8-0.8s0.2-0.8,0.5-1.1s0.5-0.7,0.7-0.9c0.3-0.3,0.6-0.6,0.9-0.8
				c0.3-0.2,0.5-0.5,0.7-0.9c0.2-0.3,0.5-0.6,0.7-0.9c0.2-0.4,0.1-0.8,0.2-1.2c0.2-0.6,0.2-0.6,0.5-1.1c0.4-0.5,0.4-0.3,0.9-0.9
				c0.2-0.3,0.8-0.4,1-0.8c0.2-0.3,0.1-0.8,0.3-1.3c0.1-0.4,0.3-0.6,0.3-1.1c-0.5-0.4-0.6,0-1.2-0.5c-0.3-0.2-0.7-0.6-1-1.1
				c-0.1-0.3-0.2-0.7-0.3-1.1c-0.1-0.3-0.2-0.8-0.3-1.1c-0.1-0.4-0.3-0.7-0.5-1.1c-0.1-0.4-0.4-0.7-0.5-1c-0.2-0.6-0.2-1.7-0.1-1.2
				c0.1,0.7,0.2,0.8,0.1,1.4c-0.1,0.4-0.6,0.6-1.1,0.7c-0.4,0-0.8-0.2-1.2-0.6c-0.3-0.3-0.7-0.7-0.9-1c-0.4-0.7,0-1.6-0.7-1.4
				c-0.7,0.3-0.1,0.9-0.4,1.5c-0.3,0.5-0.7,1-1.1,1c-0.3,0-0.7-0.2-1.2-0.5c-0.3-0.2-0.7-0.4-1-0.7s-0.7-0.5-0.9-0.8
				c-0.3-0.3-0.4-0.7-0.6-1.1c-0.2-0.4-0.5-0.7-0.6-1.1s-0.4-0.7-0.6-1.1c-0.2-0.4-0.5-0.6-0.7-0.9c-0.3-0.3-0.4-0.9-0.7-1.1
				c-0.6-0.4-0.8-0.9-1.3-0.6s0.3,0.6,0.2,1.3c0,0.3-0.3,0.7-0.3,1.1s-0.2,0.7-0.3,1.1s-0.2,0.7-0.4,1c-0.2,0.4-0.1,0.9-0.3,1.2
				c-0.3,0.3-0.8,0.3-1.1,0.5s-0.7,0.4-1,0.5c-0.4,0.2-0.5,0.7-0.9,0.9s-0.7,0.3-0.9,0.6s-0.5,0.5-0.6,0.9c0,0.3,0,0.8-0.1,1.1
				c-0.1,0.4-0.4,0.7-0.5,1c-0.1,0.4-0.1,0.8-0.3,1.1c-0.1,0.4-0.2,0.8-0.3,1.1c-0.3,0.6-0.1,1.2-0.5,0.8c-0.5-0.4-0.4-0.5-0.7-1.1
				c-0.4-0.6-0.6-0.5-0.8-1.1s0.2-0.4,0.4-1.1c0.1-0.3,0.4-0.7,0.5-1.1c0.1-0.4,0.1-0.8,0.2-1.2c0-0.4,0-0.8,0-1.2s-0.1-0.8-0.2-1.2
				c-0.1-0.4,0-0.9-0.2-1.2c-0.1-0.4-0.5-0.7-0.7-1c-0.2-0.4-0.4-0.7-0.7-1s-0.5-0.7-0.9-0.8c-0.4-0.2-0.8-0.5-1.2-0.4
				s-0.7,0.6-0.9,1.1c-0.2,0.4-0.1,0.8-0.2,1.3c-0.1,0.4-0.3,0.8-0.3,1.3s0.1,0.9,0,1.4c0,0.5-0.2,1-0.2,1.3c-0.1,0.4-0.1,0.7,0,1.1
				c0,0.4-0.1,0.8,0,1.2s0.1,0.8,0.2,1.1c0.2,0.6,0.8,0.5,0.7,1c-0.1,0.6-0.5,0.3-1.1,0.8c-0.3,0.2-0.7,0.4-1.1,0.7
				c-0.3,0.3-0.4,0.8-0.7,1.1s-0.6,0.6-0.9,0.9c-0.3,0.3-0.6,0.6-0.9,0.9c-0.3,0.3-0.7,0.5-1,0.8s-0.6,0.6-0.8,0.9
				c-0.3,0.3-0.7,0.5-0.9,0.8c-0.3,0.3-0.4,0.8-0.6,1.1c-0.3,0.4-0.8,0.5-1,0.9C125.7,48.5,125.7,49,125.6,49.3z"/>
		</g>
		<g>
			<path class="st2" d="M146.2,61.9c-0.4-0.5-1-0.6-1.7-0.9c-0.3-0.1-0.7-0.4-1.2-0.6c-0.4-0.2-0.8-0.4-1.2-0.6
				c-0.4-0.2-0.7-0.5-1.1-0.7c-0.4-0.2-0.8-0.4-1.1-0.7s-0.6-0.7-0.9-1c-0.3-0.3-0.7-0.6-0.8-1c-0.1-0.3-0.3-0.7-0.5-1.2
				c-0.1-0.4-0.1-0.9-0.2-1.3c-0.1-0.4-0.2-0.8-0.3-1.3c-0.1-0.4-0.3-0.8-0.4-1.3c-0.1-0.4-0.1-0.9-0.2-1.3
				c-0.1-0.4-0.3-0.8-0.4-1.3c-0.1-0.4,0-0.9-0.1-1.3c-0.1-0.5-0.3-0.9-0.4-1.3c-0.1-0.5-0.1-0.9-0.1-1.3c-0.1-0.8,0.3-1.4-0.3-1.4
				s-0.2,0.7-0.2,1.5c0,0.4,0.1,0.8,0.1,1.3c0,0.4,0.1,0.8,0.1,1.3c0,0.4,0.1,0.8,0.1,1.3c0,0.4,0,0.9,0,1.3c0,0.4,0,0.9,0,1.3
				c0,0.4,0,0.9,0,1.3c0,0.4,0.3,0.9,0.4,1.3c0.1,0.5,0.1,0.9,0.2,1.3c0.1,0.5-0.1,1,0,1.3c0.1,0.4,0.4,0.7,0.6,1.1
				c0.2,0.4,0.3,0.8,0.5,1.2s0.5,0.7,0.7,1.1c0.2,0.4,0.4,0.7,0.7,1.1c0.2,0.4,0.5,0.7,0.7,1.1c0.3,0.4,0.6,0.6,0.8,1
				c0.4,0.5,0.8,0.9,1.2,1.4c0.2,0.3,0.4,0.6,0.6,0.8c0.4,0.5,0,1.1,0.5,1.1c0.6,0,1.1,0.5,1.5,0c0.2-0.3,0-0.7,0.2-1s0-1.6,0.2-2
				c0.2-0.3,0.7-0.5,0.9-0.8C145.5,62.3,146,62.3,146.2,61.9z"/>
		</g>
	</g>
</g>
</svg>
